<svg viewBox="0 0 500 500" xmlns="http://www.w3.org/2000/svg"><path d="m431.91 124-2.33-3.8c-19.67-32-55.25-51.31-92.75-49a99.49 99.49 0 0 0 -14.36 1.94c-34.09 7.21-63.76 32.67-76.06 65.28-7.23 19.18-9.25 41.26-23 56.49-17.86 19.81-48.19 20.43-74.85 19.61s-60.17 3.48-77.43 23.8c-14.19 16.68-25.13 41.92-27.55 58.44-7.88 53.52 31.57 87 71.2 106.62s104.72 2.42 148.1-6.21c60.77-12.1 118.56-45.32 153.3-96.62s43.53-121.21 15.73-176.55z" fill="#ebebeb"/><path d="m479.31 452c0 .14-102.68.26-229.3.26s-229.32-.14-229.32-.26 102.65-.26 229.32-.26 229.3.09 229.3.26z" fill="#263238"/><path d="m43.69 452c-9.53-10.71-13.76-27.5-11.12-41.59a82.26 82.26 0 0 1 11.12 41.59" fill="#455a64"/><path d="m48.55 452a75.64 75.64 0 0 1 -2.27-17.07 19.12 19.12 0 0 1 1.37-8.53c1.72-3.63 5.26-6 8.85-7.84s7.44-3.19 10.64-5.62a22.49 22.49 0 0 1 -8.32 11.17c-2 1.36-4.28 2.48-5.43 4.58-1.42 2.59-.63 5.76-.41 8.7a21.36 21.36 0 0 1 -4.43 14.61" fill="#455a64"/><path d="m37.89 452a30 30 0 0 0 -17.13-16.72c4 7 10.27 12.44 17.13 16.72" fill="#263238"/><path d="m451.49 452a133.94 133.94 0 0 1 6.33-61.4 113 113 0 0 1 -6.33 61.4" fill="#ff725e"/><path d="m457.67 452c.21-16.39 11.5-34.33 26-42 .12 5.23-3.2 9.91-6.86 13.64s-7.89 7.08-10.44 11.65c-3.08 5.55-3.66 12.81-8.71 16.66" fill="#ff725e"/><path d="m446 452.15a33.84 33.84 0 0 1 -13.95-30.78 218.94 218.94 0 0 1 13.95 30.78" fill="#ff725e"/><path d="m346.59 452.15a93.13 93.13 0 0 1 4.41-42.7 78.57 78.57 0 0 1 -4.41 42.7" fill="#455a64"/><path d="m348.51 451.59c1.23-3.48 3-7.91 5.35-10.77s6-4.92 9.63-4.36c3.45.52 6.13 3.18 8.44 5.78a.88.88 0 0 1 .29.54c0 .38-.43.6-.8.68-3.63.78-7.22-2-10.9-1.57-2.41.31-4.4 2-6.24 3.54-1.55 1.34-4.22 5.09-5.77 6.42" fill="#455a64"/><path d="m194 248.17c-1.33-2.75-4.83-3.89-7.37-4.54a6.8 6.8 0 0 0 -4.85.18 5.16 5.16 0 0 0 -2.49 4.89 8.42 8.42 0 0 0 2.48 5.12 25.52 25.52 0 0 0 4.59 3.54 4.19 4.19 0 0 0 -3.25 2.13 2.64 2.64 0 0 0 -.3 2.08 2.52 2.52 0 0 0 1.39 1.43 6.15 6.15 0 0 0 2 .41c5.32.43 10.62-.79 15.82-2a12.08 12.08 0 0 1 .5-3.52 15.8 15.8 0 0 0 0-8.22 8.33 8.33 0 0 0 -5.57-5.69 2.89 2.89 0 0 0 -2.6.38 2.49 2.49 0 0 0 -.74 1.84 7.22 7.22 0 0 0 .38 2" fill="#ff725e"/><path d="m200.7 232.87a6.13 6.13 0 0 0 -3.94.45 3.74 3.74 0 0 0 -2.09 3.22 4.14 4.14 0 0 0 1.58 3 12.46 12.46 0 0 0 3 1.69l12.58 5.63a45.66 45.66 0 0 0 7.09-8.88c1.22-2 2.32-4.46 1.44-6.64-1-2.4-4.17-3.36-6.56-2.39a14.49 14.49 0 0 0 -2.78-6.47 8.86 8.86 0 0 0 -6-3.4 6.48 6.48 0 0 0 -6.06 3 8.23 8.23 0 0 0 -.75 5.32 15.52 15.52 0 0 0 1.81 5.41" fill="#ff725e"/><path d="m224.21 274.85c-.39-3.64-.78-7.35 0-10.92a8.42 8.42 0 0 1 1.94-4.05 4.26 4.26 0 0 1 4.11-1.32 2.89 2.89 0 0 1 2 3.51 31 31 0 0 1 10.32-4.68c1.12-.27 2.44-.45 3.33.29s.95 2.19.75 3.38a14.46 14.46 0 0 1 -5.2 8.78 2.78 2.78 0 0 1 2.33 3.4 4.53 4.53 0 0 1 -3.3 3.06 13.36 13.36 0 0 1 -4.68.18c-4.06-.33-7.57-1.3-11.63-1.63" fill="#ff725e"/><path d="m211.3 311.72a.87.87 0 0 1 0-.24c0-.18 0-.4 0-.67 0-.64.11-1.51.19-2.6.16-2.3.39-5.55.68-9.54s.57-8.83.82-14.17.49-11.2.43-17.35a130.68 130.68 0 0 0 -1.55-17.27c-.81-5.28-1.76-10-2.71-13.91s-1.91-7.05-2.65-9.18c-.35-1.07-.68-1.89-.88-2.44-.1-.26-.17-.47-.23-.64s-.07-.22-.06-.23l.11.21.27.62c.24.54.6 1.35 1 2.41a88 88 0 0 1 2.82 9.16c1 3.92 2 8.64 2.82 13.92a126.39 126.39 0 0 1 1.6 17.34c.07 6.17-.19 12.05-.47 17.39s-.62 10.13-.94 14.16-.61 7.29-.84 9.54c-.12 1.09-.22 1.95-.28 2.59 0 .27-.07.49-.09.67a1.16 1.16 0 0 1 -.04.23z" fill="#263238"/><path d="m241.77 262.66a5.47 5.47 0 0 1 -.91.95c-.62.59-1.54 1.41-2.71 2.38a87.76 87.76 0 0 1 -20.15 12.36c-1.39.6-2.54 1-3.34 1.33a5.67 5.67 0 0 1 -1.26.38 7.25 7.25 0 0 1 1.19-.57c.77-.33 1.89-.83 3.26-1.48a108.13 108.13 0 0 0 10.4-5.6 109.38 109.38 0 0 0 9.71-6.71c1.2-.93 2.15-1.7 2.8-2.24a7.76 7.76 0 0 1 1.01-.8z" fill="#263238"/><path d="m229.85 258.47a5 5 0 0 1 0 1.11c-.06.82-.14 1.82-.22 3-.21 2.55-.53 6.07-.92 10l-.25-.28h.6c4.07.09 7.76.21 10.42.32l3.16.16a5.21 5.21 0 0 1 1.16.12 4.94 4.94 0 0 1 -1.16.08h-3.16c-2.67 0-6.36-.08-10.43-.17h-.88v-.28c.39-3.92.77-7.44 1.07-10 .15-1.18.28-2.19.38-3a4.36 4.36 0 0 1 .23-1.06z" fill="#263238"/><path d="m244.12 267.09a12.75 12.75 0 0 1 -2.49.39c-1.55.18-3.69.39-6.06.59h-.07-.33l.05-.33c.4-2.33.79-4.43 1.1-5.94a12.58 12.58 0 0 1 .6-2.43 10.78 10.78 0 0 1 -.24 2.49c-.21 1.53-.54 3.64-.94 6l-.28-.3h.07c2.36-.2 4.51-.35 6.07-.43a11.81 11.81 0 0 1 2.52-.04z" fill="#263238"/><path d="m221.88 255.18c1.69-1.61 2-4.2 1.8-6.52s-.83-4.64-.63-7a6.3 6.3 0 0 1 .88-2.85 3.64 3.64 0 0 1 2.38-1.69 3.12 3.12 0 0 1 3.48 3.12 13.22 13.22 0 0 1 7.27-5.07 4.85 4.85 0 0 1 3.8.2c1.36.83 1.83 2.61 1.79 4.2a10.23 10.23 0 0 1 -3.75 7.61 4.05 4.05 0 0 1 1.65 5.27 6.3 6.3 0 0 1 -4.88 3.29c-2 .29-4.08-.3-6.12-.43-2.22-.13-5.54.26-7.57 0" fill="#ff725e"/><path d="m237.65 240.51a6 6 0 0 1 -.63 1.07c-.43.68-1.11 1.62-2 2.75a47.36 47.36 0 0 1 -17.54 13.67c-1.31.58-2.39 1-3.15 1.25a5.88 5.88 0 0 1 -1.2.35c0-.09 1.63-.69 4.19-1.94a53.3 53.3 0 0 0 17.42-13.54c1.83-2.2 2.83-3.66 2.91-3.61z" fill="#263238"/><path d="m240.3 252.38a4.43 4.43 0 0 1 -1.08.09l-2.94.05c-2.49 0-5.94 0-9.78 0h-.28v-.28l.06-.72c.32-4 .35-7.62.3-10.24 0-1.23 0-2.27-.07-3.11a4.67 4.67 0 0 1 0-1.15 5.17 5.17 0 0 1 .18 1.13c.08.74.17 1.8.24 3.11a79.69 79.69 0 0 1 -.15 10.3c0 .25 0 .5-.06.73l-.26-.29c3.85.05 7.3.12 9.79.19l2.94.11a4.92 4.92 0 0 1 1.11.08z" fill="#263238"/><path d="m241.68 243.58a11.6 11.6 0 0 1 -2.28.89c-1.43.48-3.43 1.12-5.66 1.81l-.35.1v-.38-.47c.08-2.45.18-4.66.28-6.26a12.09 12.09 0 0 1 .27-2.58 13.42 13.42 0 0 1 .1 2.59c0 1.61 0 3.82-.13 6.26v.48l-.33-.26c2.23-.68 4.25-1.26 5.7-1.66a13 13 0 0 1 2.4-.52z" fill="#263238"/><path d="m204.21 284.17-1.44-8.17a14 14 0 0 0 -1.63-5.18 4.76 4.76 0 0 0 -4.57-2.37 3.32 3.32 0 0 0 -2.47 4.3 10.8 10.8 0 0 0 -6.48-2.68c-2.24-.14-4.78.65-5.73 2.68s-.06 4.22 1.42 5.69a15.4 15.4 0 0 0 5.43 3 10.92 10.92 0 0 0 -2 2.41 3.71 3.71 0 0 0 -.36 3 3.56 3.56 0 0 0 2.38 2.05 7.53 7.53 0 0 0 3.24.12c4.34-.57 8.35-2.57 12.26-4.55" fill="#ff725e"/><path d="m190.18 244.85a8.42 8.42 0 0 1 0 2c-.06 1.26-.18 3-.34 5v.2h-.2l-.51.09c-2.05.37-3.91.67-5.26.87a9.76 9.76 0 0 1 -2.2.21 9.15 9.15 0 0 1 2.14-.57c1.33-.29 3.18-.65 5.23-1l.51-.09-.22.23c.18-1.95.35-3.69.51-4.95a8 8 0 0 1 .34-1.99z" fill="#263238"/><path d="m195.66 243.83a4.9 4.9 0 0 1 .22 1.07c.12.81.26 1.8.43 3 .34 2.5.77 6 1.22 9.84v.24l-.23.05-.43.09c-3.91.81-7.45 1.51-10 2l-3 .55a5 5 0 0 1 -1.14.13 4.69 4.69 0 0 1 1.09-.33l3-.71c2.55-.57 6.08-1.33 10-2.14l.44-.09-.21.28c-.45-3.86-.82-7.34-1.06-9.86-.11-1.18-.19-2.17-.26-3a4.39 4.39 0 0 1 -.07-1.12z" fill="#263238"/><path d="m213.7 273.86a8.26 8.26 0 0 1 -1-1.18c-.63-.76-1.56-1.85-2.77-3.14a127.09 127.09 0 0 0 -10-9.51c-4.11-3.51-8-6.52-10.85-8.57-1.44-1-2.62-1.83-3.45-2.38a8.28 8.28 0 0 1 -1.26-.89 8.16 8.16 0 0 1 1.37.71c.86.5 2.08 1.26 3.55 2.26a124.22 124.22 0 0 1 11 8.48 104.65 104.65 0 0 1 10 9.65c1.18 1.33 2.06 2.47 2.65 3.27a8.79 8.79 0 0 1 .76 1.3z" fill="#263238"/><path d="m212.77 290.76a6.38 6.38 0 0 1 -1.08-.69l-2.85-2c-2.41-1.68-5.8-3.91-9.63-6.24s-7.36-4.36-9.89-5.85l-3-1.79a5.19 5.19 0 0 1 -1.06-.72 6.72 6.72 0 0 1 1.16.54l3.08 1.65c2.58 1.41 6.14 3.39 10 5.72s7.21 4.63 9.58 6.39c1.18.88 2.12 1.61 2.76 2.13a6.46 6.46 0 0 1 .93.86z" fill="#263238"/><path d="m189.88 270.94a44 44 0 0 1 1.58 6.08v.26l-.26.05-.92.16c-2 .34-3.73.62-5 .79a7.82 7.82 0 0 1 -2.1.18 8.58 8.58 0 0 1 2-.54c1.28-.27 3-.61 5-.95l.92-.15-.21.31a41.41 41.41 0 0 1 -1.01-6.19z" fill="#263238"/><path d="m196.57 268.46a4 4 0 0 1 .27 1c.14.64.32 1.57.54 2.72.44 2.3 1 5.49 1.62 9v.19l-.17.08-.27.14c-3.26 1.68-6.23 3.16-8.39 4.22-1.08.52-1.95.94-2.56 1.22a4.34 4.34 0 0 1 -1 .39 3.73 3.73 0 0 1 .88-.57c.59-.33 1.44-.8 2.5-1.37 2.11-1.14 5.05-2.68 8.31-4.35l.27-.14-.13.27c-.6-3.54-1.12-6.74-1.46-9.06-.18-1.16-.31-2.09-.39-2.74a3.58 3.58 0 0 1 -.02-1z" fill="#263238"/><path d="m211.29 222.79a13.5 13.5 0 0 1 -.74 2.54c-.53 1.55-1.29 3.7-2.17 6.12l-.1.28-.27-.14-1-.55c-2.5-1.35-4.75-2.6-6.37-3.53a17.05 17.05 0 0 1 -2.56-1.59 18.29 18.29 0 0 1 2.74 1.27c1.66.84 3.94 2 6.44 3.39l1 .55-.37.14c.9-2.41 1.72-4.54 2.33-6.07a14.92 14.92 0 0 1 1.07-2.41z" fill="#263238"/><path d="m219.26 229.77a5.48 5.48 0 0 1 -.6.93l-1.79 2.44c-1.54 2.06-3.69 4.89-6.13 8l-.1.13h-.17l-1.09-.31c-4.08-1.15-7.77-2.22-10.43-3l-3.14-1a6.11 6.11 0 0 1 -1.14-.42 4.46 4.46 0 0 1 1.19.23l3.19.81c2.69.71 6.39 1.73 10.47 2.88l1.09.31-.28.09c2.45-3.15 4.65-5.94 6.26-7.94.76-.92 1.4-1.7 1.91-2.34a4.6 4.6 0 0 1 .76-.81z" fill="#263238"/><path d="m122.83 322.21a112.14 112.14 0 0 0 -18 11.56 11 11 0 0 0 -2.77 2.81 4 4 0 0 0 -.34 3.79c.91 1.76 3.25 2.15 5.23 2s4.07-.57 5.85.29a2.44 2.44 0 0 0 -1.15 4 2.45 2.45 0 0 0 -3.5 1.22 14.17 14.17 0 0 0 -6.93 24.9l46.36-13.78 9.8-2.79c2.82-2.5 3.53-7.57 2.65-11.23a16.57 16.57 0 0 0 -6.41-9c-3.41-2.55-7.66-4.29-9.86-7.93-1.88-3.11-1.85-7-1.76-10.61a50.5 50.5 0 0 0 -22.81 6.51" fill="#f5f5f5"/><path d="m121.11 347.82a1.19 1.19 0 0 1 -.36.18 8.73 8.73 0 0 1 -1 .34 9.81 9.81 0 0 1 -3.62.18 9.94 9.94 0 0 1 -3.43-1.17 7.25 7.25 0 0 1 -.91-.62c-.2-.16-.31-.25-.3-.27s.47.33 1.28.76a10.38 10.38 0 0 0 7 1c.79-.22 1.32-.43 1.34-.4z" fill="#263238"/><path d="m112.84 342.67a6.76 6.76 0 0 0 6.48.83c3.28-1.26 5.09-4.85 8.15-6.58a2.68 2.68 0 0 1 2.2-.38 2 2 0 0 1 1.07 2.15c-.21 1.42-1.51 2.4-2.73 3.16-3.32 2.07-5.71 3.67-9.61 3.33-1.75-.15-4.54-1-5.56-2.51" fill="#e0e0e0"/><path d="m137.49 334s-.07.08-.21.21l-.65.54-2.38 2-3.55 2.92a46.15 46.15 0 0 1 -4.54 3.35 14.91 14.91 0 0 1 -5.22 2.12 10.43 10.43 0 0 1 -4.59-.21 7.62 7.62 0 0 1 -2.75-1.43 4.8 4.8 0 0 1 -.6-.59c-.13-.15-.2-.22-.19-.23s.27.31.84.75a7.47 7.47 0 0 0 2.74 1.36 10.33 10.33 0 0 0 4.52.16 15.14 15.14 0 0 0 5.14-2.11 42.72 42.72 0 0 0 4.52-3.32c1.33-1.07 2.53-2 3.59-2.88l2.42-1.93.67-.52z" fill="#263238"/><path d="m111.65 346.7a16.7 16.7 0 0 0 4.21 2.75 8.59 8.59 0 0 0 4.92.65 2.45 2.45 0 0 0 1.56-.81 1.1 1.1 0 0 0 -.2-1.57c-.48-.27-1.08 0-1.59.22a9.1 9.1 0 0 1 -8.8-1.24" fill="#e0e0e0"/><path d="m108.19 347.91a13.12 13.12 0 0 0 6.47 9.07 15.12 15.12 0 0 0 11 1.19 8 8 0 0 0 2.92-1.32 4 4 0 0 0 1.59-2.71 2.35 2.35 0 0 0 -1-2s-6 3.68-12.7 2.22-8.28-6.45-8.28-6.45z" fill="#e0e0e0"/><path d="m131.5 351a1.05 1.05 0 0 1 -.23.14l-.68.38c-.6.31-1.47.75-2.57 1.23a22 22 0 0 1 -9.15 2 12.73 12.73 0 0 1 -8.55-3.54 8.65 8.65 0 0 1 -1.67-2.32 6.28 6.28 0 0 1 -.4-1 10.52 10.52 0 0 0 2.17 3.18 12.81 12.81 0 0 0 8.46 3.44 22.38 22.38 0 0 0 9.12-1.91c1.11-.46 2-.87 2.59-1.17l.7-.33z" fill="#263238"/><path d="m104.66 339.94c-3.53-.73 3.63-6.26 6.26-8.73a43.31 43.31 0 0 1 8.71-6.08 57.4 57.4 0 0 1 10-4.56c2.71-.91 5.75-1.5 8.36-.34 0 0-11.49 12-15.27 14.44s-10.11 6.9-18.06 5.27z" fill="#e0e0e0"/><path d="m135.14 322.84a11.37 11.37 0 0 0 -6.66-5.76 8.55 8.55 0 0 0 -8.55 2 6.71 6.71 0 0 0 -.72 8.44 5.79 5.79 0 0 0 -5.11 8.07 6 6 0 0 0 -5.53 4.64 20.47 20.47 0 0 0 10.33-3.06 41 41 0 0 0 6-4.2 126.55 126.55 0 0 0 10.24-10.13z" fill="#ff725e"/><path d="m140.14 318.23-.34.31-1 .88c-.86.77-2.07 1.91-3.51 3.36l-5 5.19a71.41 71.41 0 0 1 -6.5 6 32 32 0 0 1 -7.57 4.58 22.09 22.09 0 0 1 -7 1.68 17.25 17.25 0 0 1 -4.85-.37 11.56 11.56 0 0 1 -1.71-.52s.15 0 .44.12.72.19 1.28.32a17.63 17.63 0 0 0 4.83.3 22.4 22.4 0 0 0 7-1.7 32.73 32.73 0 0 0 7.51-4.57 71 71 0 0 0 6.49-6c1.91-1.93 3.6-3.7 5.06-5.15s2.69-2.57 3.57-3.32 1.3-1.11 1.3-1.11z" fill="#263238"/><path d="m149.32 285.75s3.33 21.92 16.83 34.75l2.3-.83s-16.49-17.1-17.36-34.08" fill="#455a64"/><path d="m104.64 248.39a16.06 16.06 0 0 0 -4.37 19.6 74.53 74.53 0 0 1 8.89-9.05 24.7 24.7 0 0 1 11.32-5.45c2.25-.36 5.09-.7 5.78-2.87a3.44 3.44 0 0 0 -1.11-3.45 7.72 7.72 0 0 0 -3.4-1.65 21.32 21.32 0 0 0 -18.07 3.67" fill="#263238"/><path d="m151.09 285.59c-1.53-9.77.4-21.58-1.09-31.36a17.76 17.76 0 0 0 -6.53-10.85 27.41 27.41 0 0 0 -11.69-5.29c-2.14-.46-4.49-.7-6.44.29s-3.2 3.64-2 5.47a20.59 20.59 0 0 0 -19.34 5.07c4.71-2.37 11-.65 15 2.87s6.26 8.42 8.51 13.19l22.17 22.57z" fill="#455a64"/><path d="m149.63 283.12s-.07-.17-.17-.48-.23-.78-.45-1.37c-.4-1.19-1.06-2.89-1.92-4.95-1.74-4.14-4.37-9.76-7.54-15.83a51.5 51.5 0 0 0 -5-8.22 28.67 28.67 0 0 0 -5.59-5.49 22.87 22.87 0 0 0 -4.58-2.65c-.57-.26-1-.42-1.34-.53a4.61 4.61 0 0 1 -.47-.19l.48.15a13.39 13.39 0 0 1 1.36.5 22.15 22.15 0 0 1 4.64 2.6 28.28 28.28 0 0 1 5.65 5.49 51.2 51.2 0 0 1 5 8.25c3.16 6.07 5.78 11.7 7.48 15.86.85 2.08 1.49 3.78 1.87 5s.58 1.86.58 1.86z" fill="#263238"/><path d="m149.76 281.62c1.16 2.55 4.51 3.52 7.18 2.69s4.68-3.05 6.13-5.43 2.47-5 3.93-7.4c2.8-4.55 7.1-8 11.31-11.26 2.49-2 5-3.94 8.05-5s6.58-.86 9 1.18c0-2.59-1.83-4.92-4.14-6.11a17 17 0 0 0 -7.56-1.46c-7.27-.12-14.7 1.19-21 4.81s-11.37 9.81-12.66 16.96z" fill="#455a64"/><path d="m195.07 254.61s-.16-.16-.44-.48a11.28 11.28 0 0 0 -1.36-1.27 12.65 12.65 0 0 0 -6.26-2.55 25.42 25.42 0 0 0 -10 .91 41.77 41.77 0 0 0 -11.39 4.91 33.89 33.89 0 0 0 -9.14 8.34 30.09 30.09 0 0 0 -4.58 9 26.61 26.61 0 0 0 -1.19 6.73v1.87s0 .65 0 .65 0-.22 0-.65 0-1.06 0-1.87a26.36 26.36 0 0 1 1.13-6.77 30 30 0 0 1 4.57-9.09 33.81 33.81 0 0 1 9.18-8.4 41.32 41.32 0 0 1 11.33-4.94 25.13 25.13 0 0 1 10.11-.87 12.54 12.54 0 0 1 6.29 2.63 9.64 9.64 0 0 1 1.75 1.85z" fill="#263238"/><path d="m162.65 253.69s-.08.07-.26.18-.44.26-.76.5a27.27 27.27 0 0 0 -2.61 2.05 39.21 39.21 0 0 0 -3.49 3.48 26.49 26.49 0 0 0 -3.5 4.89 13 13 0 0 0 -1.1 2.9c-.28 1-.49 1.92-.66 2.84a39.65 39.65 0 0 0 -.54 4.9c-.07 1.4-.07 2.54-.06 3.32v.91s0 .32 0 .32a1.64 1.64 0 0 1 0-.32c0-.27 0-.57 0-.9 0-.79-.06-1.93 0-3.34a37.88 37.88 0 0 1 .5-4.93c.17-.92.38-1.87.65-2.85a13.58 13.58 0 0 1 1.11-2.95 26.23 26.23 0 0 1 3.55-4.92 36.26 36.26 0 0 1 3.53-3.46 23.9 23.9 0 0 1 2.67-2 8.81 8.81 0 0 1 .97-.62z" fill="#263238"/><path d="m144.59 275.75c-4.11-5.28-11.08-7.92-17.77-7.6s-13.06 3.32-18.25 7.56-9.27 9.66-12.85 15.29a48.42 48.42 0 0 0 23.7-2c4.92-1.69 9.58-4.18 14.65-5.34s10.89-.76 14.74 2.74c-1-4.08-1.75-7.62-4.38-10.91" fill="#455a64"/><path d="m149.48 286.67s-.13-.18-.35-.52-.56-.83-1-1.45a22.8 22.8 0 0 0 -4.7-4.51 22.35 22.35 0 0 0 -8.83-3.8 32.44 32.44 0 0 0 -11.79.42 48.37 48.37 0 0 0 -11.18 4 87.87 87.87 0 0 0 -8.44 4.79c-2.34 1.49-4.19 2.75-5.47 3.62l-1.47 1c-.34.23-.53.34-.53.34s2.75-2 7.39-5.08a84.16 84.16 0 0 1 8.44-4.84 48 48 0 0 1 11.21-4 32.47 32.47 0 0 1 11.88-.41 22.39 22.39 0 0 1 8.87 3.87 22.1 22.1 0 0 1 4.68 4.58 16.16 16.16 0 0 1 1 1.48c.19.32.29.51.29.51z" fill="#263238"/><path d="m149.48 286.67s-.07-.44-.25-1.22a17.16 17.16 0 0 0 -1.1-3.2 31 31 0 0 0 -2.44-4.4 29.77 29.77 0 0 0 -3.83-4.79 16.13 16.13 0 0 0 -5.23-3.15 29.06 29.06 0 0 0 -4.82-1.42 23.09 23.09 0 0 0 -3.36-.42h-.93-.32a18.78 18.78 0 0 1 4.64.32 29 29 0 0 1 4.86 1.39 16.41 16.41 0 0 1 5.3 3.17 28.59 28.59 0 0 1 3.85 4.85 29.84 29.84 0 0 1 2.41 4.44 16.1 16.1 0 0 1 1.05 3.24 7.84 7.84 0 0 1 .17 1.19z" fill="#263238"/><path d="m157.88 306c0-3.38.45-7 2.51-9.64a12.36 12.36 0 0 1 4.83-3.61 38 38 0 0 1 5.8-1.84 1.67 1.67 0 0 1 1.1 0 1.57 1.57 0 0 1 .71 1.3 10.27 10.27 0 0 1 -7.27 11.3c-2.54.74-5.56 1-7.68 2.52" fill="#455a64"/><path d="m172.76 291.48a.61.61 0 0 1 -.21.08l-.6.2c-.51.18-1.26.44-2.16.83a21.86 21.86 0 0 0 -6.36 4.11 18.15 18.15 0 0 0 -4.3 6.2 19.69 19.69 0 0 0 -.73 2.19c-.13.53-.2.83-.21.82a12.22 12.22 0 0 1 .81-3.06 17.58 17.58 0 0 1 4.29-6.31 21 21 0 0 1 6.45-4.09 19 19 0 0 1 2.19-.76l.61-.17z" fill="#263238"/><path d="m152.83 325.32 17.94 25.97 20.28-8.92-10.21-30.65z" fill="#263238"/><path d="m149 322.81 32.96-14.63 1.84 5.08-32.39 14.12-1.97-3.37" fill="#263238"/><path d="m183.8 313.26c0 .05-7.18 3.25-16.09 7.13s-16.16 7-16.18 6.95 7.18-3.25 16.09-7.14 16.15-6.99 16.18-6.94z" fill="#455a64"/><path d="m186.26 328.17c0 .05-5.32 2.57-11.94 5.62s-12 5.48-12 5.43 5.32-2.57 11.95-5.62 11.97-5.48 11.99-5.43z" fill="#fafafa"/><path d="m185.49 326c0 .06-5.41 2.61-12.13 5.71s-12.2 5.57-12.22 5.51 5.41-2.6 12.13-5.7 12.2-5.52 12.22-5.52z" fill="#fafafa"/><path d="m184.92 324s-5.58 2.69-12.51 5.88-12.58 5.74-12.6 5.69 5.58-2.68 12.51-5.88 12.58-5.77 12.6-5.69z" fill="#fafafa"/><circle cx="119.76" cy="422.63" fill="#263238" r="29.42" transform="matrix(.68594536 -.72765305 .72765305 .68594536 -269.9 219.85)"/><circle cx="119.92" cy="423.27" fill="#455a64" r="17.15" transform="matrix(.619231 -.78520887 .78520887 .619231 -286.71 255.36)"/><path d="m244 303.5s.93 59.94-5.21 65.9-64.23 41.1-68.58 40.82-79.39-35-79.39-35z" fill="#ff725e"/><path d="m326.72 240.49-29.62 17.23s-32.93 62.28-36.56 68.54a49.26 49.26 0 0 1 -13.85 15.44c-5.18 4-155.06 93.24-155.06 93.24l3.16 5.4 82.68-50.55s18.81-9.15 32.83 5.78 26.29 27.19 39.82 20.37c16.85-8.49 1.12-40.5-14.1-58.87 0 0 18-10.61 22.38-15.88a132.81 132.81 0 0 0 14.82-23.47c3.4-6.91 26.57-51.76 27.86-53.62s28.63-17.8 28.63-17.8c.38-.01-2.99-5.81-2.99-5.81zm-78.33 148c5.81 15.29 3.62 18.73 2.15 20.5s-6 5.45-13 2.84c-8.29-3.11-21-17.71-23-19.74s-11.64-11.21-19.93-9.84l36.42-22.42s11.67 13.67 17.36 28.65z" fill="#263238"/><path d="m91.64 431s-4 3.52-3.78 4.39 1.59.87 4.44-.81l3.85 5.42s-9.28 6.15-13.44 2.46 1.77-10.29 8.59-15z" fill="#263238"/><path d="m87.82 380.86a6 6 0 0 0 5.42.12l151.05-73.47a5.22 5.22 0 0 0 2.84-5.63 5.21 5.21 0 0 0 -7.39-3.73l-151.74 73.45a5.2 5.2 0 0 0 -.18 9.26z" fill="#ff725e"/><path d="m98.09 378.62 145.92-70.97-.02 6.42-140.04 67.24z" opacity=".3"/><path d="m245.48 306.71c.06.13-34 16.86-76 37.37s-76.17 37-76.24 36.9 34-16.86 76-37.37 76.18-37.03 76.24-36.9z" fill="#263238"/><path d="m145.18 402.93a2.53 2.53 0 0 1 -.52.36l-1.53.94-5.67 3.38-18.75 11.09c-7.31 4.35-13.9 8.34-18.66 11.23l-5.65 3.43-1.54.91a4 4 0 0 1 -.56.29 2.27 2.27 0 0 1 .5-.38l1.5-1c1.3-.85 3.2-2.07 5.55-3.56 4.72-3 11.28-7 18.6-11.37s14-8.2 18.83-11l5.75-3.23 1.58-.86a3.32 3.32 0 0 1 .57-.23z" fill="#455a64"/><path d="m148.07 407.76a2.61 2.61 0 0 1 -.51.36l-1.52.94-5.6 3.4c-4.72 2.87-11.22 6.89-18.35 11.4l-18.28 11.54-5.57 3.44-1.54.91a2.19 2.19 0 0 1 -.55.29 2.73 2.73 0 0 1 .5-.38l1.48-1 5.48-3.58c4.64-3 11.06-7.16 18.2-11.67s13.67-8.48 18.44-11.28c2.39-1.39 4.34-2.51 5.69-3.25l1.56-.86a3.32 3.32 0 0 1 .57-.26z" fill="#455a64"/><path d="m91.45 413.57c-.07 0 .35-.84 1.65-1.25s3.15-.06 5 .6a14.78 14.78 0 0 1 4.34 2.48 5.77 5.77 0 0 1 1.43 1.49 24.69 24.69 0 0 0 -6-3.48 8.91 8.91 0 0 0 -4.69-.73 4.75 4.75 0 0 0 -1.73.89z" fill="#455a64"/><path d="m102.94 406.55a28 28 0 0 0 -2.6-1.81 24.43 24.43 0 0 0 -3-1 4.42 4.42 0 0 1 3.23.56 4.47 4.47 0 0 1 2.37 2.25z" fill="#455a64"/><path d="m113.7 407.68a24.38 24.38 0 0 0 -3.08-6.14 24.57 24.57 0 0 0 -5-4.67 5.4 5.4 0 0 1 1.83.93 15 15 0 0 1 5.9 7.85 5.39 5.39 0 0 1 .35 2.03z" fill="#455a64"/><path d="m127.15 408.4a18.69 18.69 0 0 0 5-12.36 5.39 5.39 0 0 1 .17 2 14.4 14.4 0 0 1 -3.64 9 5.6 5.6 0 0 1 -1.53 1.36z" fill="#455a64"/><path d="m123.14 400.73c-.15 0 0-1.68-.28-3.7s-.85-3.58-.71-3.64a9.61 9.61 0 0 1 1 7.34z" fill="#455a64"/><path d="m149 425.21a4.76 4.76 0 0 1 -1.75.62 14.56 14.56 0 0 1 -4.45.31 14.87 14.87 0 0 1 -4.34-1 4.83 4.83 0 0 1 -1.62-.9 28.83 28.83 0 0 0 6 1.41 29.25 29.25 0 0 0 6.16-.44z" fill="#455a64"/><path d="m148.58 417.24c.09.11-.76.84-2.07 1.15a3.28 3.28 0 0 1 -2.37-.09 18.33 18.33 0 0 1 2.25-.42 21.1 21.1 0 0 1 2.19-.64z" fill="#455a64"/><path d="m139.4 445.15a14.71 14.71 0 0 1 -8.51-8.4 37.52 37.52 0 0 0 3.73 4.74 36.08 36.08 0 0 0 4.78 3.66z" fill="#455a64"/><path d="m145.94 436.83a10 10 0 0 1 -5.28-2.72 12.93 12.93 0 0 1 2.67 1.3 13.62 13.62 0 0 1 2.61 1.42z" fill="#455a64"/><path d="m114.2 451.28a3.23 3.23 0 0 1 -1-1.47 8.16 8.16 0 0 1 -.49-4.27 13.32 13.32 0 0 1 1.31-4.07 5.11 5.11 0 0 1 .93-1.51 7.79 7.79 0 0 1 -.59 1.66 17.75 17.75 0 0 0 -1.14 4 9 9 0 0 0 .33 4.06c.32 1 .72 1.55.65 1.6z" fill="#455a64"/><path d="m127.38 450.76c0 .06-.38 0-.88-.31a4.94 4.94 0 0 1 -2.31-3.67c0-.58 0-.93.1-.93a13.63 13.63 0 0 0 1.07 2.76 13.81 13.81 0 0 0 2.02 2.15z" fill="#455a64"/><path d="m104.25 441.06a12.69 12.69 0 0 1 -1.45 2.35 14 14 0 0 1 -1.51 2.31 5.51 5.51 0 0 1 1.07-2.59 5.58 5.58 0 0 1 1.89-2.07z" fill="#455a64"/><path d="m94.86 424.7a6.15 6.15 0 0 1 -2.1.39c-.79.1-1.48.2-1.84.21l.06-.21c.09.16.12.25.09.28s-.13 0-.27-.11l-.15-.1.21-.1a5.91 5.91 0 0 1 1.83-.49 3.62 3.62 0 0 1 2.17.13z" fill="#455a64"/><path d="m124.19 355.61-.4.22-1.16.62-4.28 2.24-14.16 7.31-7.81 4-3.38 1.77a18.39 18.39 0 0 0 -2.87 1.67 5.08 5.08 0 0 0 -1.68 2.09 3.82 3.82 0 0 0 -.24 2 2.81 2.81 0 0 0 .79 1.53 1.65 1.65 0 0 1 -.33-.32 2.69 2.69 0 0 1 -.54-1.2 4 4 0 0 1 .21-2.07 5.1 5.1 0 0 1 1.7-2.16 17.82 17.82 0 0 1 2.88-1.72l3.4-1.76 7.8-4 14.19-7.27 4.31-2.18 1.18-.58a3.3 3.3 0 0 1 .39-.19z" fill="#fafafa"/><path d="m134.78 351.26a25.66 25.66 0 0 1 -2.94 1.47 26.49 26.49 0 0 1 -3 1.27 26.48 26.48 0 0 1 2.95-1.46 26.74 26.74 0 0 1 2.99-1.28z" fill="#fafafa"/><path d="m95.33 429.17a21.83 21.83 0 0 1 -1.2-4 27 27 0 0 1 -.55-4.5 27.61 27.61 0 0 1 1.86-10.89 26.16 26.16 0 0 1 2-4.07 20.29 20.29 0 0 1 2.46-3.36l-.16.24-.5.66c-.22.28-.48.64-.76 1.07s-.61.9-.92 1.47a27.64 27.64 0 0 0 -1.95 4.06 28.28 28.28 0 0 0 -1.84 10.82 27.23 27.23 0 0 0 .49 4.47c.1.64.26 1.2.38 1.69s.25.92.36 1.26.17.56.25.8a1.28 1.28 0 0 1 .08.28z" fill="#fafafa"/><path d="m145.39 404.45c0 .05-13.26 8.15-29.69 18.09s-29.77 18-29.8 17.92 13.26-8.15 29.69-18.1 29.77-17.96 29.8-17.91z" fill="#fafafa"/><path d="m152.25 400.28a4.66 4.66 0 0 1 -1.53 1.39 4.76 4.76 0 0 1 -1.89.83c0-.06.84-.39 1.78-1s1.6-1.26 1.64-1.22z" fill="#fafafa"/><path d="m201.51 393.52a3.74 3.74 0 0 1 -.77.37c-.51.22-1.27.53-2.26.92a72.76 72.76 0 0 1 -8.58 2.72c-.93.21-1.91.41-2.94.54a11.25 11.25 0 0 1 -3.28 0 30.88 30.88 0 0 1 -6.81-2.22 77.08 77.08 0 0 1 -7-3.65c-2.37-1.35-4.82-2.77-7.3-4.26-9.94-5.95-18.64-11.82-24.82-16.22-3.09-2.2-5.55-4-7.25-5.32l-1.93-1.5a4 4 0 0 1 -.65-.55 5.74 5.74 0 0 1 .71.47l2 1.42c1.73 1.22 4.22 3 7.34 5.17 6.23 4.33 14.95 10.14 24.88 16.08 2.48 1.49 4.92 2.91 7.28 4.27s4.66 2.63 6.94 3.66a31.46 31.46 0 0 0 6.69 2.23 17.17 17.17 0 0 0 6.06-.49 81.24 81.24 0 0 0 8.59-2.56l2.29-.82a8.27 8.27 0 0 1 .81-.26z" fill="#263238"/><path d="m333.67 95.36a24.07 24.07 0 0 0 -9.67 1.93c-3.64 1.62-7.05 6.37-6.19 10.25a12.56 12.56 0 0 0 2.92 5.08 68.86 68.86 0 0 0 6.76 7" fill="#263238"/><path d="m353 114.71a15.54 15.54 0 0 0 -16.33-15.2c-8.31.42-14.7 7.58-14.74 15.9 0 7.29.09 14.63.5 17.24 1.25 7.87 6.31 10.27 8.32 10.92a10.31 10.31 0 0 0 2.15.21.06.06 0 0 1 .05.06l-.43 9.31c.07 6 4.16 10.86 10.2 10.86s10.06-5.24 10.1-11.31z" fill="#ffbe9d"/><path d="m324.88 119.49a1.27 1.27 0 0 0 1.22 1.28 1.23 1.23 0 0 0 1.31-1.15 1.28 1.28 0 0 0 -1.22-1.28 1.22 1.22 0 0 0 -1.31 1.15z" fill="#263238"/><path d="m324.06 117.28c.16.17 1.12-.54 2.48-.54s2.36.69 2.51.52-.09-.37-.52-.69a3.47 3.47 0 0 0 -2-.62 3.42 3.42 0 0 0 -2 .64c-.4.32-.53.62-.47.69z" fill="#263238"/><path d="m338.21 119.49a1.27 1.27 0 0 0 1.22 1.28 1.22 1.22 0 0 0 1.31-1.15 1.27 1.27 0 0 0 -1.22-1.28 1.22 1.22 0 0 0 -1.31 1.15z" fill="#263238"/><path d="m337.46 117.54c.16.16 1.12-.55 2.49-.54s2.36.68 2.51.51-.09-.37-.53-.69a3.48 3.48 0 0 0 -2-.61 3.29 3.29 0 0 0 -2 .63c-.4.32-.54.62-.47.7z" fill="#263238"/><path d="m332.52 127.65a9.36 9.36 0 0 0 -2.22-.4c-.35 0-.68-.1-.74-.34a1.78 1.78 0 0 1 .24-1c.32-.85.67-1.73 1-2.66a45.79 45.79 0 0 0 2.31-6.93 45.64 45.64 0 0 0 -2.87 6.73l-1 2.67a2 2 0 0 0 -.18 1.37.86.86 0 0 0 .57.5 2.29 2.29 0 0 0 .59.09 9 9 0 0 0 2.3-.03z" fill="#263238"/><path d="m333 143.78s5.26.44 11.85-3.52c0 0-2.08 7-12 6z" fill="#eb996e"/><path d="m333.09 130.94a2.47 2.47 0 0 1 2.21-.92 2.26 2.26 0 0 1 1.54.83 1.42 1.42 0 0 1 .11 1.63 1.64 1.64 0 0 1 -1.79.45 5 5 0 0 1 -1.74-1 1.48 1.48 0 0 1 -.39-.4.47.47 0 0 1 0-.51" fill="#eb996e"/><path d="m336.53 128.59c-.22 0-.23 1.47-1.49 2.52s-2.85.89-2.86 1.1.35.28 1 .3a3.7 3.7 0 0 0 2.38-.83 3.17 3.17 0 0 0 1.16-2.11c.08-.57-.09-.99-.19-.98z" fill="#263238"/><path d="m336.85 115.15c.14.37 1.5.19 3.1.39s2.89.63 3.1.29c.1-.15-.13-.5-.65-.86a5.37 5.37 0 0 0 -4.72-.52c-.59.23-.89.55-.83.7z" fill="#263238"/><path d="m324.56 114.5c.24.31 1.18 0 2.31 0s2.09.21 2.31-.12c.09-.15-.06-.46-.47-.76a3.21 3.21 0 0 0 -1.88-.5 3.12 3.12 0 0 0 -1.84.62c-.4.26-.53.61-.43.76z" fill="#263238"/><path d="m353.54 94.74c5.6-.3 12.9 4.75 14.83 10.56 1.77 5.32 2.68 11.07.57 16.27a46 46 0 0 1 -8.81 12.78 40.6 40.6 0 0 1 -7.13 5.09" fill="#263238"/><path d="m355.15 118.45a18.46 18.46 0 0 1 -15.88-3.59 21.18 21.18 0 0 1 -7.55-15.37c-.05-1.21-.16-3.88 1-4.13 2.44-.54 2.75-.45 4.29 0a21.82 21.82 0 0 1 11.78 8.28 24.78 24.78 0 0 1 4.54 14.33" fill="#263238"/><path d="m366.35 119.62a7.38 7.38 0 0 1 5.13-7.5 9.16 9.16 0 0 1 9 2.46 12.21 12.21 0 0 1 3.27 9 12.54 12.54 0 0 1 -3.38 8.26 9.72 9.72 0 0 1 -8.3 2.89 10.11 10.11 0 0 1 -7.78-7.86 14.28 14.28 0 0 1 2.71-11.11" fill="#263238"/><path d="m352.91 132.74c0-7.34-.76-17.41-4.62-23.32s-8.88-12.07-15.64-14.08c6.81-1.7 12.67-1.41 19.66-.73a16.27 16.27 0 0 1 6.69 2.71 11.8 11.8 0 0 1 4.14 5.7 23.66 23.66 0 0 1 .25 16.46c-1.89 5.28-5.39 10.3-10.28 13" fill="#ff725e"/><path d="m351 116.25a4.65 4.65 0 0 1 -1.15-.18 17.88 17.88 0 0 1 -3-.94 22.09 22.09 0 0 1 -13.27-15.22 18.79 18.79 0 0 1 -.52-3.12 4.69 4.69 0 0 1 0-1.16c.1 0 .17 1.64.89 4.18a23.05 23.05 0 0 0 13.05 15c2.36 1.04 4 1.34 4 1.44z" fill="#455a64"/><path d="m349.15 110.76a2.6 2.6 0 0 1 -.77-.32 21.59 21.59 0 0 1 -2-1.11 33.86 33.86 0 0 1 -10.58-10.46 20.91 20.91 0 0 1 -1.12-2 2.73 2.73 0 0 1 -.33-.77c.07 0 .67 1 1.76 2.53a40.75 40.75 0 0 0 10.49 10.37c1.57 1.1 2.59 1.69 2.55 1.76z" fill="#455a64"/><path d="m364.11 129.07c-.07-.06.69-.78 1.7-2.11a21.28 21.28 0 0 0 3-5.71 20.59 20.59 0 0 0 1.07-6.38c0-1.67-.15-2.7-.06-2.71s.11.24.2.71a11.62 11.62 0 0 1 .23 2 18.15 18.15 0 0 1 -4.19 12.33 13.18 13.18 0 0 1 -1.39 1.44c-.33.3-.54.46-.56.43z" fill="#455a64"/><path d="m383.6 123.61a13.22 13.22 0 0 0 -1.41-1.85 8.93 8.93 0 0 0 -5-2.31 19.49 19.49 0 0 0 -5.63.24 13.55 13.55 0 0 1 -2.36.31 8.82 8.82 0 0 1 2.29-.67 16.66 16.66 0 0 1 5.77-.4 8.62 8.62 0 0 1 5.17 2.57 5.79 5.79 0 0 1 1 1.48c.16.39.2.62.17.63z" fill="#455a64"/><path d="m380.77 114.14a15.81 15.81 0 0 0 -11.19 4.86 4.67 4.67 0 0 1 1.15-1.48 12.14 12.14 0 0 1 3.76-2.53 12.48 12.48 0 0 1 4.42-1 4.45 4.45 0 0 1 1.86.15z" fill="#455a64"/><path d="m379.38 132.88a5.15 5.15 0 0 1 -2.45.34 9 9 0 0 1 -8.54-7.3 5.08 5.08 0 0 1 -.05-2.47c.09 0 0 1 .41 2.39a9.25 9.25 0 0 0 8.21 7c1.48.16 2.41-.05 2.42.04z" fill="#455a64"/><path d="m362.5 121.34a6.3 6.3 0 0 1 -1.81-1.08 4 4 0 0 1 -1-3 2.8 2.8 0 0 1 1.92-2.38c1-.29 2.87.15 2.93.63-.01.01-.93 4.12-2.04 5.83z" fill="#fff" opacity=".3"/><path d="m353.67 109.32a3 3 0 1 1 -.52.26" fill="#fff" opacity=".3"/><path d="m353.6 98.09a3 3 0 1 1 -.52.26" fill="#fff" opacity=".3"/><g fill="#fff" opacity=".3"><path d="m364.44 108a22.83 22.83 0 0 0 -1.3-4.93c-.11-.28-.22-.55-.35-.83a2.64 2.64 0 0 0 -.46.13l-.52.26a3 3 0 0 0 2.63 5.37z"/><path d="m347.75 103.9a3.12 3.12 0 0 0 -3.85-1.58l-.52.26c-.08 0-.14.11-.22.17a46.66 46.66 0 0 1 3.77 4.67 3.15 3.15 0 0 0 .82-3.52z"/><path d="m342.81 94.19a3 3 0 1 0 5 .77 2.55 2.55 0 0 0 -.49-.72c-1.54-.07-3.02-.09-4.51-.05z"/><path d="m352.32 121.44-.16.07c.3 1.89.49 3.79.61 5.64a2.93 2.93 0 0 0 2-.21 3 3 0 0 0 -2.45-5.5z"/></g><path d="m358.43 132a4.2 4.2 0 0 1 3.62-2 7.9 7.9 0 0 1 4.11 1.26 14.12 14.12 0 0 1 5.67 6.41 10.7 10.7 0 0 1 -5.74 1.18 9.63 9.63 0 0 1 -5.51-1.71 5.13 5.13 0 0 1 -2.05-5.14" fill="#ff725e"/><path d="m358.16 132a4.23 4.23 0 0 1 3.54 2.17 7.89 7.89 0 0 1 .9 4.2 14.1 14.1 0 0 1 -2.81 8.07 10.63 10.63 0 0 1 -3.79-4.44 9.66 9.66 0 0 1 -1.2-5.64 5.14 5.14 0 0 1 3.47-4.31" fill="#ff725e"/><path d="m362.46 140s.08-.5.09-1.31a7.38 7.38 0 0 0 -.66-3 6.75 6.75 0 0 0 -1.92-2.44c-.63-.51-1.09-.72-1.07-.75a1.25 1.25 0 0 1 .33.13 4.62 4.62 0 0 1 .83.5 6.37 6.37 0 0 1 2 2.48 6.72 6.72 0 0 1 .61 3.13 6 6 0 0 1 -.12 1c-.03.11-.07.26-.09.26z" fill="#263238"/><path d="m357.29 128.78a3.78 3.78 0 0 0 -2.51 1.57 2.5 2.5 0 0 0 .22 2.72 2.74 2.74 0 0 0 2.57 1 3 3 0 0 0 2.21-1.69 2.42 2.42 0 0 0 -.3-2.68 2.25 2.25 0 0 0 -1.42-.66 4.11 4.11 0 0 0 -1.59.18" fill="#ff725e"/><path d="m357.78 128.76a15.77 15.77 0 0 1 -1.88 1.74 16 16 0 0 1 -2 1.59 30.73 30.73 0 0 1 3.89-3.33z" fill="#263238"/><path d="m357.85 133.58a3.6 3.6 0 0 0 .21-2.19 3.49 3.49 0 0 0 -1.35-1.75 1.31 1.31 0 0 1 .62.31 2.84 2.84 0 0 1 .93 1.38 2.75 2.75 0 0 1 -.06 1.66c-.15.4-.33.61-.35.59z" fill="#263238"/><path d="m359.94 130.55a1.73 1.73 0 0 1 0 .94 3 3 0 0 1 -3.32 2.54 1.87 1.87 0 0 1 -.9-.29s.35.11.91.14a3 3 0 0 0 3.17-2.42c.2-.55.1-.91.14-.91z" fill="#263238"/><path d="m358 138.31a6.31 6.31 0 0 1 -.4-2.11 5.78 5.78 0 0 1 .16-2.13c.06 0 0 1 .05 2.12s.25 2.11.19 2.12z" fill="#263238"/><path d="m359.12 137.17a6.37 6.37 0 0 1 -.91-3.38c.06 0 .17.77.43 1.7s.54 1.66.48 1.68z" fill="#263238"/><path d="m364.18 132.69c0 .06-.95-.33-2.16-.48s-2.2 0-2.2-.1a4.94 4.94 0 0 1 2.23-.11 5.12 5.12 0 0 1 2.13.69z" fill="#263238"/><path d="m362.6 138.2a4.58 4.58 0 0 0 1.09.33 1.56 1.56 0 0 0 1.1-.22 1.94 1.94 0 0 0 .6-1.92 4.86 4.86 0 0 0 -2.07-3.31 5 5 0 0 0 -3.85-.71l-.22.52s1.65.2 2.75 2.51a4.69 4.69 0 0 1 .6 2.8z" opacity=".3"/><path d="m354.47 131.56a2.23 2.23 0 0 0 1.36 1.78 2.32 2.32 0 0 0 2.52-.62 2.53 2.53 0 0 0 .42-2.6 1.27 1.27 0 0 0 -.66-.74 1.11 1.11 0 0 0 -.89.06 3.86 3.86 0 0 0 -.75.52l-1.92 1.63" opacity=".3"/><path d="m338.66 128a.2.2 0 0 1 .27.18.21.21 0 0 1 -.27.18.2.2 0 0 1 -.06-.32" fill="#263238"/><path d="m378.7 113.33a3.05 3.05 0 0 0 -.36-1.63 3.22 3.22 0 0 0 -1.27-1.27 3.71 3.71 0 0 0 -2.15-.42 5.76 5.76 0 0 0 -3.6 1.74 2.78 2.78 0 0 0 -.71 1.51 1.21 1.21 0 0 1 0-.47 2.66 2.66 0 0 1 .58-1.14 5.68 5.68 0 0 1 3.69-1.85 3.88 3.88 0 0 1 2.27.46 3.36 3.36 0 0 1 1.3 1.37 2.48 2.48 0 0 1 .3 1.24 1.25 1.25 0 0 1 -.05.46z" fill="#263238"/><path d="m321.61 113.6a3.61 3.61 0 0 1 -1-.15 5.24 5.24 0 0 1 -2.37-1.42 6 6 0 0 1 -1.7-3.7 8.2 8.2 0 0 1 1.17-4.87 11.94 11.94 0 0 1 3.5-3.6 20.33 20.33 0 0 1 3.63-1.93c1.08-.46 2-.77 2.59-1l.72-.24a1.17 1.17 0 0 1 .25-.07 1.47 1.47 0 0 1 -.24.11l-.7.27c-.61.24-1.49.57-2.56 1a21 21 0 0 0 -3.58 2 11.78 11.78 0 0 0 -3.43 3.55 8.11 8.11 0 0 0 -1.16 4.74 5.9 5.9 0 0 0 1.62 3.62 5.39 5.39 0 0 0 2.29 1.45c.61.21.97.21.97.24z" fill="#263238"/><path d="m345.93 114.59a7.07 7.07 0 0 1 -1 .21 11.31 11.31 0 0 1 -2.75 0 11.63 11.63 0 0 1 -10.6-12.58 10.74 10.74 0 0 1 .53-2.7 6.49 6.49 0 0 1 .37-.93s-.11.34-.3 1a12.23 12.23 0 0 0 -.45 2.68 11.65 11.65 0 0 0 10.47 12.43 11.66 11.66 0 0 0 2.72 0c.66-.06 1.01-.13 1.01-.11z" fill="#263238"/><path d="m409.51 421.32-7.62-9.94-.4-.52-13 9.65 12 13.2-.43 13.36c-6.7 1.74-7.7 5.08-7.7 5.08h13.91l12.63-24.35z" fill="#ff725e"/><path d="m418.94 427.8-12.63 24.33-13.91.02 1.56-2.09 11.31-.64 11.67-23z" fill="#fff" opacity=".6"/><path d="m400.18 441c.1.15.91-.31 2-.28s1.87.48 2 .34-.65-.94-2-.95-2.13.73-2 .89z" fill="#263238"/><path d="m400.4 437.64c.14.1.76-.72 1.87-.94s2 .29 2.09.14-.12-.29-.51-.5a2.5 2.5 0 0 0 -1.7-.24 2.55 2.55 0 0 0 -1.48.88c-.28.34-.34.62-.27.66z" fill="#263238"/><path d="m400.31 433.38c.15.08.63-.72 1.59-1.06s1.84 0 1.91-.18-.14-.26-.52-.4a2.39 2.39 0 0 0 -2.83 1c-.21.35-.22.61-.15.64z" fill="#263238"/><path d="m396.58 430.09c.17.05.56-.74 1.42-1.3s1.73-.64 1.74-.82-1-.39-2.08.31-1.24 1.79-1.08 1.81z" fill="#263238"/><path d="m394.77 427.23c.07 0 .53-.51 1.21-1.46l1.18-1.67a4.47 4.47 0 0 0 .64-1.12 1.12 1.12 0 0 0 -.09-.85.88.88 0 0 0 -.84-.44 2.53 2.53 0 0 0 -1.29.68 4.76 4.76 0 0 0 -.85 1 4.7 4.7 0 0 0 -.73 2 2.6 2.6 0 0 0 .32 1.9 16.38 16.38 0 0 1 .11-1.83 4.86 4.86 0 0 1 .77-1.76 4.18 4.18 0 0 1 .76-.82 2.26 2.26 0 0 1 1-.53.25.25 0 0 1 .26.13.51.51 0 0 1 0 .39 4.15 4.15 0 0 1 -.54 1l-1.06 1.75a5.86 5.86 0 0 0 -.85 1.63z" fill="#263238"/><path d="m394.27 427.64c.06 0 0-.73-.74-1.57a3.49 3.49 0 0 0 -4.13-.74.68.68 0 0 0 -.21.5.73.73 0 0 0 .17.44 2.13 2.13 0 0 0 .49.44 7.09 7.09 0 0 0 1 .56 6 6 0 0 0 1.83.51 3 3 0 0 0 1.72-.16c0-.1-.66-.05-1.65-.27a7.1 7.1 0 0 1 -1.66-.59 7 7 0 0 1 -.88-.54 2 2 0 0 1 -.36-.31c-.06-.13 0-.09 0-.13a1.07 1.07 0 0 1 .4-.15 3 3 0 0 1 .52-.08 3.94 3.94 0 0 1 1 .07 3.47 3.47 0 0 1 1.51.76c.72.62.9 1.3.99 1.26z" fill="#263238"/><circle cx="409.5" cy="427.38" fill="#fff" opacity=".6" r="1.65"/><path d="m389.73 421.84 2.67 2.93 11.23-11.12-1.56-2.04z" opacity=".3"/><path d="m289.75 421.42-3.17 18.28s-19.65 2.92-20.57 6.24l35.23 7.42 6.11-28.28z" fill="#ff725e"/><path d="m297.79 440.47a1.48 1.48 0 0 1 .65 1.85 1.41 1.41 0 0 1 -1.83.66 1.55 1.55 0 0 1 -.68-2 1.47 1.47 0 0 1 2-.48" fill="#fff" opacity=".6"/><path d="m301.24 453.36.61-2.82-34.07-6.09s-1.71.35-1.77 1.49z" fill="#fff" opacity=".6"/><path d="m286 439.4c0 .18.82.44 1.55 1.17s1 1.55 1.2 1.51.12-1.08-.78-1.95-1.97-.89-1.97-.73z" fill="#263238"/><path d="m282 440.15c-.08.16.61.61 1 1.46s.43 1.66.61 1.69.48-.93-.07-2-1.48-1.3-1.54-1.15z" fill="#263238"/><path d="m279 444.13c.15.07.57-.74.32-1.77s-1-1.58-1.07-1.45.29.73.48 1.59.1 1.58.27 1.63z" fill="#263238"/><path d="m287.23 435.32c0 .17.88.1 1.83.37s1.66.74 1.78.61-.48-.9-1.62-1.2-2.05.06-1.99.22z" fill="#263238"/><path d="m289.12 425.04-.57 3.26 17.35 3.49.64-2.91z" opacity=".3"/><path d="m287.94 431.64a3.35 3.35 0 0 0 1.76.36 8.41 8.41 0 0 0 2-.17 8.76 8.76 0 0 0 1.12-.33 2.06 2.06 0 0 0 .62-.3.75.75 0 0 0 .27-.9.94.94 0 0 0 -.67-.55 2.35 2.35 0 0 0 -.68-.05 6.24 6.24 0 0 0 -1.17.15 6.1 6.1 0 0 0 -1.85.72c-1 .59-1.4 1.17-1.34 1.22s.57-.39 1.54-.84a7.16 7.16 0 0 1 1.76-.55 6.19 6.19 0 0 1 1.08-.1c.39 0 .71 0 .77.23s0 .1-.08.19a2 2 0 0 1 -.46.22 9 9 0 0 1 -1 .34 10 10 0 0 1 -1.85.29 13.2 13.2 0 0 0 -1.82.07z" fill="#263238"/><path d="m288.11 431.94a3 3 0 0 0 .82-1.61 5.83 5.83 0 0 0 .17-2 6.36 6.36 0 0 0 -.23-1.17 1.48 1.48 0 0 0 -.93-1.13.85.85 0 0 0 -.84.34 2.12 2.12 0 0 0 -.32.61 4 4 0 0 0 -.25 1.19 4.13 4.13 0 0 0 .37 2c.49 1.06 1.17 1.41 1.19 1.36s-.45-.54-.79-1.52a4.16 4.16 0 0 1 -.21-1.78 3.4 3.4 0 0 1 .25-1c.13-.36.33-.64.47-.57s.41.38.49.71a5.87 5.87 0 0 1 .24 1.05 6.87 6.87 0 0 1 0 1.83c-.2 1.03-.54 1.64-.43 1.69z" fill="#263238"/><path d="m318.12 243.39s-14.1 43-25.7 92.93c-5.77 24.86-9.08 67.73-10.08 82.22a5.74 5.74 0 0 0 4.51 6l22.84 5a7.17 7.17 0 0 0 8.64-6l9.19-65.33 14.12-42.82c4.85-13.52 11.82-23.4 20.28-30.72 5.19-7.35 9.14-14.95 11.12-23.3a59.63 59.63 0 0 0 1-20.4z" fill="#263238"/><path d="m319.15 250.26 8.1 95.44c1.11 9.18 4.26 19.35 10.48 26.19l40.75 52.18a5.83 5.83 0 0 0 8.48.76l20.71-18.52a4.88 4.88 0 0 0 .61-6.63l-48.36-62.59 8.6-95.38-48.42 8.29" fill="#263238"/><path d="m360.39 336.34c.09.17-2 1.21-4 3.28s-2.89 4.21-3.06 4.13.54-2.41 2.6-4.56 4.42-3.01 4.46-2.85z" fill="#455a64"/><path d="m359.69 337c0 .19-1.85.12-4.07.35s-4 .62-4.07.44a8.84 8.84 0 0 1 4-1.08 8.94 8.94 0 0 1 4.14.29z" fill="#455a64"/><path d="m372.68 262.55a8 8 0 0 1 -.17 1.08c-.08.37-.16.81-.26 1.31s-.31 1.09-.5 1.75a41.24 41.24 0 0 1 -5.12 10.38c-2.7 4.1-6.45 8.57-10.44 13.64a84 84 0 0 0 -5.8 8.25 100.41 100.41 0 0 0 -5.05 9.58c-3.11 6.75-5.62 13.4-7.75 19.49s-3.9 11.62-5.4 16.27-2.68 8.35-3.54 11c-.42 1.25-.76 2.25-1 3a7.59 7.59 0 0 1 -.4 1 6.63 6.63 0 0 1 .27-1.07l.89-3c.81-2.68 1.94-6.45 3.34-11.08s3.17-10.22 5.27-16.33 4.6-12.78 7.72-19.57a98.52 98.52 0 0 1 5.11-9.64 81.11 81.11 0 0 1 5.87-8.29c4-5.06 7.8-9.47 10.52-13.51a42.62 42.62 0 0 0 5.26-10.21c.21-.64.42-1.21.56-1.72l.32-1.29a6.29 6.29 0 0 1 .3-1.04z" fill="#455a64"/><path d="m318.92 419.41a8.56 8.56 0 0 1 -1.43-.17l-3.86-.66c-3.25-.57-7.74-1.39-12.68-2.34s-9.43-1.83-12.66-2.49l-3.83-.82a8.71 8.71 0 0 1 -1.39-.36 6.79 6.79 0 0 1 1.43.16l3.85.66c3.26.57 7.74 1.4 12.7 2.34s9.42 1.83 12.66 2.49l3.82.82a6.7 6.7 0 0 1 1.39.37z" fill="#455a64"/><path d="m313.41 411.57a7.75 7.75 0 0 1 -2.93 6.47c-.12-.11 1-1.3 1.78-3.09s.99-3.39 1.15-3.38z" fill="#455a64"/><path d="m307.2 414.39c.14 0 .17.61.06 1.32s-.26 1.29-.45 1.29-.17-.62-.06-1.33.3-1.31.45-1.28z" fill="#455a64"/><path d="m403.65 393.25a7.22 7.22 0 0 1 -1.09 1.07l-3.11 2.74c-2.64 2.3-6.31 5.45-10.39 8.91s-7.79 6.56-10.49 8.79l-3.22 2.62a8.4 8.4 0 0 1 -1.22.9 8.28 8.28 0 0 1 1.09-1.06l3.11-2.74c2.64-2.3 6.31-5.45 10.39-8.91s7.79-6.56 10.49-8.79l3.22-2.62a10.5 10.5 0 0 1 1.22-.91z" fill="#455a64"/><path d="m389.93 395.37a6.66 6.66 0 0 1 3.43 6.49 11.83 11.83 0 0 0 -3.43-6.49z" fill="#455a64"/><path d="m394.43 395.26c.05 0 .31.27.52.86a5 5 0 0 1 .22 2.42 4.9 4.9 0 0 1 -.94 2.24c-.39.5-.72.71-.76.66a7.25 7.25 0 0 0 1-6.18z" fill="#455a64"/><path d="m261.14 215.81-8.14 4.19-14 6.93a4.19 4.19 0 0 0 -2.25 1.87l-5.16 9.07h9.87l2.63-4.42a8.48 8.48 0 0 0 9.45-2.65l14.33-5z" fill="#ffbe9d"/><path d="m243.67 231.22a55.62 55.62 0 0 0 -1.56 10.66c0 .46 0 1 .4 1.25s1-.44 1.33-.85c.64-.74 3-4.82 3-4.82a6.79 6.79 0 0 0 6.16-6.59" fill="#ffbe9d"/><path d="m253 230.87a1.94 1.94 0 0 1 0 .74 6 6 0 0 1 -.51 2 6.59 6.59 0 0 1 -1.91 2.52 7.36 7.36 0 0 1 -3.73 1.57l.18-.12c-.75 1.3-1.58 2.71-2.52 4.16-.15.21-.29.42-.46.63a6.69 6.69 0 0 1 -.5.58 1.42 1.42 0 0 1 -.75.48.81.81 0 0 1 -.83-.5 3 3 0 0 1 -.12-1.52c0-.46.06-.91.1-1.36a46.22 46.22 0 0 1 .63-4.65c.24-1.31.49-2.36.69-3.08a5.07 5.07 0 0 1 .36-1.11 4.81 4.81 0 0 1 -.17 1.15c-.13.73-.33 1.79-.52 3.1s-.39 2.88-.51 4.63l-.09 1.35a3 3 0 0 0 .08 1.26c.08.16.22.25.3.22a1 1 0 0 0 .46-.32l.47-.56c.14-.17.28-.39.42-.59.93-1.42 1.77-2.84 2.54-4.12l.06-.11h.12a7.14 7.14 0 0 0 3.53-1.4 6.65 6.65 0 0 0 1.9-2.33 10.35 10.35 0 0 0 .78-2.62z" fill="#eb996e"/><path d="m329.71 153.59 23.26-.45c12.82.66 17.77 7.43 17.77 7.43l-5.39 30.69-3.74 16.35 10.81 41.79-53.78-1.29.36-32.06s-1.76-6.48-3.47-14.66c-2.25 4.76-4.88 9.2-7.29 10.25-3.62 1.59-46.42 17.81-46.42 17.81l-5.64-13.21 42.57-21.38 15.59-29.32a24 24 0 0 1 15.36-12" fill="#ff725e"/><path d="m365.63 236 2.83-1.9 1.31 5.04z" opacity=".4"/><path d="m329.71 153.59 1.85-5.48 1.09-.58 3.53 4.34 4.82-4.34h12l1.24 6.06-16.78 2.25z" fill="#ff725e"/><path d="m336.18 151.87a7.16 7.16 0 0 1 1.3-.86c.85-.51 2.08-1.23 3.56-2.08a.2.2 0 0 1 .29.08.11.11 0 0 1 0 .07c.33 2.09.72 4.53 1.13 7.14.05.34.1.67.15 1l-.35-.2c3.13-1.16 5.94-2.18 8-2.88 1-.36 1.83-.63 2.4-.82a3.43 3.43 0 0 1 .9-.23 3.7 3.7 0 0 1 -.83.42l-2.35 1c-2 .79-4.78 1.86-7.9 3a.27.27 0 0 1 -.34-.15s0 0 0-.06c-.05-.31-.1-.64-.15-1-.38-2.62-.74-5.06-1.05-7.15l.32.16c-1.51.81-2.76 1.47-3.65 1.92a6.74 6.74 0 0 1 -1.43.64z" fill="#263238"/><path d="m329.71 153.59a22.24 22.24 0 0 1 1.42 3.57h-.42c.28-1.22.63-2.68 1-4.23.36-1.4.7-2.7 1-3.89a.23.23 0 0 1 .27-.17.41.41 0 0 1 .11.07 24.19 24.19 0 0 1 2.78 3.12 24.51 24.51 0 0 1 -3.1-2.8l.38-.11-.95 3.9c-.39 1.56-.76 3-1.09 4.22a.23.23 0 0 1 -.27.15.24.24 0 0 1 -.16-.15 22.06 22.06 0 0 1 -.97-3.68z" fill="#263238"/><path d="m334.9 164.82c0-.06.33-.27.82.05a.93.93 0 0 1 .41.89 1.11 1.11 0 0 1 -.79.93 1.09 1.09 0 0 1 -1.14-.44 1 1 0 0 1 -.07-1c.29-.51.71-.49.7-.43s-.25.2-.35.57a.6.6 0 0 0 .1.56.68.68 0 0 0 .63.23.66.66 0 0 0 .44-.5.59.59 0 0 0 -.17-.54c-.26-.27-.57-.25-.58-.32z" fill="#263238"/><path d="m333.39 174.65c0-.06.33-.27.82 0a1 1 0 0 1 .41.9 1.1 1.1 0 0 1 -.8.93 1.08 1.08 0 0 1 -1.13-.44 1 1 0 0 1 -.07-1c.29-.51.71-.49.7-.43s-.25.2-.36.57a.64.64 0 0 0 .11.56.68.68 0 0 0 .63.23.68.68 0 0 0 .44-.5.58.58 0 0 0 -.14-.47c-.29-.3-.6-.28-.61-.35z" fill="#263238"/><path d="m332.43 183.66s.33-.26.82.05a1 1 0 0 1 .41.9 1.05 1.05 0 0 1 -1.93.48 1 1 0 0 1 -.06-1c.28-.51.71-.49.7-.43s-.26.2-.36.57a.58.58 0 0 0 .11.56.63.63 0 0 0 .62.22.66.66 0 0 0 .45-.49.61.61 0 0 0 -.19-.52c-.25-.28-.56-.26-.57-.34z" fill="#263238"/><path d="m336.48 155.89s.33-.27.82.05a1 1 0 0 1 .41.9 1.11 1.11 0 0 1 -.8.93 1.09 1.09 0 0 1 -1.13-.45 1 1 0 0 1 -.07-1c.29-.51.71-.5.7-.43s-.25.19-.36.57a.61.61 0 0 0 .11.56.68.68 0 0 0 .63.22.65.65 0 0 0 .44-.49.61.61 0 0 0 -.17-.55c-.27-.26-.57-.2-.58-.31z" fill="#263238"/><path d="m341.8 154.43c0 .06-2.22.11-4.95.11s-5 0-5-.11 2.22-.1 5-.1 4.95.05 4.95.1z" fill="#fafafa"/><path d="m353.56 149.5c0 .06-2.59.8-5.83 1.66s-5.87 1.51-5.88 1.46 2.59-.8 5.83-1.66 5.87-1.51 5.88-1.46z" fill="#fafafa"/><path d="m332 152.46s-.36-.26-.7-.66-.6-.77-.55-.81.36.26.7.67.55.77.55.8z" fill="#fafafa"/><path d="m358.11 187.65c1 3.07 4.69 14.75 4.69 14.75l-1.19 5.21 1.39 5.39-6.81 4.94c-3-4.6-2.53-15.91-1.9-21 .91-7.51 1-12.07 1.3-17.87.01-.07 2.12 7.32 2.52 8.58z" opacity=".3"/><path d="m329.31 189.1a7.09 7.09 0 0 1 -.2-1.48 31 31 0 0 1 0-4.08 76.23 76.23 0 0 1 2.24-13.25c1.19-5.11 2.3-9.72 3.12-13 .41-1.6.74-2.92 1-4a9.12 9.12 0 0 1 .44-1.43 7.42 7.42 0 0 1 -.24 1.48c-.22 1-.5 2.37-.84 4-.73 3.35-1.78 8-3 13.09a88.89 88.89 0 0 0 -2.39 13.15c-.13 1.71-.15 3.09-.13 4.05a8.12 8.12 0 0 1 0 1.47z" fill="#263238"/><path d="m315.44 251.85s-2.5-57.74-1.92-60.16 37.92-3.45 38-2 .6 35.26 3.35 39.93 19.2 11.38 19.2 11.38.27 9 .1 12.3c-.09 1.72-26.46 9.24-26.46 9.24z" fill="#263238"/><path d="m341 200.74s-.23.25-.72.62a7.52 7.52 0 0 1 -.92.64 12.82 12.82 0 0 1 -1.28.75 20.36 20.36 0 0 1 -3.57 1.48 21.9 21.9 0 0 1 -9.38.78 20.06 20.06 0 0 1 -3.77-.87 14.25 14.25 0 0 1 -1.39-.52 8.86 8.86 0 0 1 -1-.48 3.52 3.52 0 0 1 -.82-.49c.05-.09 1.25.53 3.33 1.14a23.63 23.63 0 0 0 3.72.75 23.45 23.45 0 0 0 9.18-.77 22.94 22.94 0 0 0 3.54-1.35c1.95-.94 3.08-1.76 3.08-1.68z" fill="#455a64"/><path d="m341.09 203.82a3.69 3.69 0 0 1 -.69.74 19.7 19.7 0 0 1 -2.09 1.74c-.49.32-1 .68-1.59 1s-1.23.7-1.94 1a16.59 16.59 0 0 1 -4.8 1.35 14.94 14.94 0 0 1 -5-.21 14 14 0 0 1 -3.8-1.45 9.16 9.16 0 0 1 -1.32-.84 6.73 6.73 0 0 1 -.93-.72 3.7 3.7 0 0 1 -.71-.71c.07-.09 1.11.91 3.13 1.94a14.47 14.47 0 0 0 3.73 1.31 15.06 15.06 0 0 0 4.82.16 16.91 16.91 0 0 0 4.68-1.27c.7-.26 1.31-.63 1.91-.92s1.11-.66 1.6-.95c1.91-1.26 2.91-2.24 3-2.17z" fill="#455a64"/><path d="m339.37 225.73s-.1.09-.34.21a7.25 7.25 0 0 1 -1 .46 13 13 0 0 1 -4.1.82 14.4 14.4 0 0 1 -6.11-1 13.8 13.8 0 0 1 -6-4.66 20.38 20.38 0 0 1 -3.21-6.88 34.22 34.22 0 0 1 -1-6.11c-.14-1.75-.17-3.18-.19-4.16a7.83 7.83 0 0 1 0-1.52 8.21 8.21 0 0 1 .16 1.51c.08 1 .17 2.4.35 4.14a37.73 37.73 0 0 0 1.08 6 20.35 20.35 0 0 0 3.17 6.7 13.45 13.45 0 0 0 5.74 4.52 14.64 14.64 0 0 0 5.92 1.13 14.34 14.34 0 0 0 4-.65c1.02-.32 1.51-.55 1.53-.51z" fill="#455a64"/><path d="m355.35 172.7c.82-11 10.21-21.81 17.1-10.52 6.29 10.29 15.67 36.72 16.8 53.23.52 7.71-49.51 36.7-52.61 38.49-.08 0-.65-1-.7-1.13l-9.38-13.11c0-.08 3.11-2.15 3.18-2.2l36-26.44a.19.19 0 0 0 .06-.21c-.77-2.07-10.93-29.53-10.47-37.82.01-.09.01-.19.02-.29z" fill="#ff725e"/><path d="m375.43 212.63c-.1.19-2.09-.78-4.73-1.24s-4.85-.26-4.88-.47 2.22-.75 5-.24 4.72 1.8 4.61 1.95z" fill="#263238"/><path d="m373 215.83c-.19.11-1.26-1.49-3.15-2.83s-3.74-1.88-3.69-2.09 2.09 0 4.11 1.5 2.87 3.35 2.73 3.42z" fill="#263238"/><path d="m326.56 239.66a5.13 5.13 0 0 1 .64-.53l1.9-1.46 7-5.27 23.3-17.22 6.23-4.57-.09.29c-2.91-9-5.47-16.88-7.31-22.58-.89-2.79-1.6-5-2.11-6.66q-.34-1.12-.54-1.8a3.06 3.06 0 0 1 -.16-.63 3.73 3.73 0 0 1 .25.6c.15.45.36 1 .62 1.77.55 1.6 1.31 3.84 2.25 6.62 1.89 5.68 4.51 13.55 7.48 22.51a.25.25 0 0 1 -.09.29l-6.22 4.58-23.39 17.1-7.12 5.14-2 1.37a4.16 4.16 0 0 1 -.64.45z" fill="#263238"/><g fill="#fafafa"><path d="m375.84 168.64c0 .06-14.14.1-31.59.1s-31.59 0-31.59-.1 14.14-.1 31.59-.1 31.59.04 31.59.1z"/><path d="m379.71 177.81c0 .06-16.14.11-36 .11s-36 0-36-.11 16.13-.1 36-.1 36 .05 36 .1z"/><path d="m382.79 186.49c0 .06-17.8.26-39.76.44s-39.78.29-39.78.24 17.81-.26 39.77-.45 39.77-.29 39.77-.23z"/><path d="m372.05 161.54c0 .06-12.33.13-27.54.16s-27.54 0-27.54-.06 12.33-.12 27.54-.15 27.54 0 27.54.05z"/><path d="m385.85 196.58c0 .06-7.73.11-17.26.11s-17.27-.05-17.27-.11 7.73-.1 17.27-.1 17.26.04 17.26.1z"/><path d="m387.81 206.5c0 .05-5.19.1-11.59.1s-11.58 0-11.58-.1 5.18-.11 11.58-.11 11.59.05 11.59.11z"/><path d="m377.31 228a2 2 0 0 1 -.07-.21c-.06-.18-.12-.38-.18-.58-.14-.52-.38-1.25-.71-2.14a27.45 27.45 0 0 0 -8.66-11.85c-.74-.58-1.37-1-1.81-1.33l-.51-.34a1.22 1.22 0 0 1 -.17-.13s.07 0 .19.09l.53.32a17.82 17.82 0 0 1 1.86 1.28 26.14 26.14 0 0 1 5.22 5.32 26.47 26.47 0 0 1 3.49 6.59c.31.9.53 1.64.65 2.16l.14.6a.6.6 0 0 1 .03.22z"/><path d="m366.44 235.36s-2.64-3.53-5.8-8-5.68-8.05-5.63-8.09 2.64 3.54 5.8 8 5.68 8.06 5.63 8.09z"/><path d="m354.82 242.62c-.05 0-2.44-3.39-5.35-7.66s-5.23-7.74-5.18-7.78 2.44 3.4 5.35 7.67 5.23 7.74 5.18 7.77z"/><path d="m344.46 247.92s-2.23-3-4.87-6.75-4.75-6.83-4.7-6.87 2.22 3 4.87 6.75 4.74 6.83 4.7 6.87z"/><path d="m387.19 219.2-.19-.2-.51-.48c-.43-.42-1.07-1-1.88-1.73a30.21 30.21 0 0 0 -6.94-4.73 18.1 18.1 0 0 0 -8.13-1.82 14.32 14.32 0 0 0 -2.53.3c-.59.12-.92.21-.92.19a11 11 0 0 1 3.44-.63 17.59 17.59 0 0 1 8.23 1.77 29.14 29.14 0 0 1 6.95 4.81c.8.73 1.42 1.35 1.84 1.78l.48.51a1.21 1.21 0 0 1 .16.23z"/><path d="m313.19 197.76c0 .05-3-1-6.62-2.42s-6.57-2.55-6.55-2.61 3 1 6.62 2.42 6.57 2.55 6.55 2.61z"/><path d="m311.54 208.2s-2.93-2.87-6.45-6.51-6.36-6.61-6.31-6.65 2.93 2.87 6.46 6.51 6.35 6.61 6.3 6.65z"/><path d="m301.24 214a4.44 4.44 0 0 1 -.41-.58c-.26-.39-.62-.95-1.05-1.65-.87-1.4-2-3.36-3.24-5.57s-2.21-4.25-2.91-5.74c-.35-.75-.63-1.35-.81-1.78a4 4 0 0 1 -.26-.66 4.86 4.86 0 0 1 .33.63l.87 1.74c.73 1.48 1.77 3.51 3 5.71s2.33 4.18 3.17 5.6l1 1.68a5.57 5.57 0 0 1 .31.62z"/><path d="m292.73 217.64a4.3 4.3 0 0 1 -.35-.6l-.87-1.69c-.72-1.43-1.68-3.43-2.65-5.68s-1.79-4.31-2.35-5.81l-.63-1.79a4.27 4.27 0 0 1 -.21-.67 3.55 3.55 0 0 1 .28.64l.7 1.77c.59 1.49 1.42 3.54 2.4 5.78s1.9 4.25 2.59 5.7q.45.93.81 1.71a5.48 5.48 0 0 1 .28.64z"/><path d="m283.38 221.07c-.05 0-1.37-3.47-2.94-7.79s-2.79-7.85-2.74-7.87 1.37 3.47 2.94 7.79 2.8 7.85 2.74 7.87z"/><path d="m274.3 224.31c-.05 0-1.38-3.1-3-7s-2.82-7-2.77-7.05 1.38 3.1 3 7 2.82 7.02 2.77 7.05z"/><path d="m267.71 227.24a3 3 0 0 1 -.3-.5l-.76-1.4c-.63-1.2-1.46-2.87-2.3-4.75s-1.56-3.6-2-4.86l-.55-1.5a3.3 3.3 0 0 1 -.18-.57 2.44 2.44 0 0 1 .25.54c.2.46.4 1 .62 1.47.51 1.25 1.24 3 2.09 4.84s1.65 3.55 2.24 4.76l.7 1.44a2.82 2.82 0 0 1 .19.53z"/><path d="m364.35 155.84s.16.41.43 1.18l1.19 3.4c1 3 2.52 7.24 4.34 12.5 3.66 10.59 8.7 25.16 14.26 41.26l.15.44a.11.11 0 0 1 0 .12c-13.51 10.24-26 19.11-35.15 25.38-4.57 3.13-8.29 5.63-10.87 7.34l-3 2-1.05.68 1-.71 2.95-2c2.57-1.74 6.28-4.25 10.84-7.4 9.11-6.3 21.6-15.19 35.11-25.43v.12l-.15-.44c-5.54-16.11-10.55-30.69-14.2-41.28-1.79-5.27-3.25-9.54-4.27-12.53-.5-1.45-.88-2.59-1.16-3.4s-.42-1.23-.42-1.23z"/><path d="m357 156.28s.11.36.29 1.07.45 1.77.79 3.08c.68 2.72 1.66 6.59 2.85 11.35l9.35 37.45.53 2.14a.1.1 0 0 1 0 .1c-11.43 9-21.71 17.13-29.16 23l-8.78 6.9-2.39 1.87-.85.64s.28-.24.82-.67l2.37-1.9 8.74-7 29.12-23.05v.11c-.16-.68-.34-1.4-.53-2.14-3.62-14.61-6.9-27.84-9.28-37.47l-2.87-11.31-.75-3.09c-.18-.71-.25-1.08-.25-1.08z"/><path d="m357 216.43s-.05-.22-.13-.63-.2-1.06-.34-1.8c-.3-1.63-.72-3.87-1.22-6.62s-1.12-6.15-1.78-9.83c-.33-1.85-.73-3.79-.95-5.83s-.37-4.15-.45-6.32c-.29-8.68-.49-16.53-.62-22.22-.06-2.79-.12-5.08-.15-6.73q0-1.12 0-1.83c0-.42 0-.64 0-.64s0 .22 0 .64 0 1.08.07 1.83c.05 1.65.13 3.93.22 6.73.17 5.74.41 13.56.68 22.21.08 2.17.21 4.28.44 6.31s.61 4 .93 5.81c.66 3.69 1.25 7 1.74 9.84s.87 5 1.16 6.64q.18 1.11.3 1.8c.1.42.1.64.1.64z"/><path d="m342 153.42a1.8 1.8 0 0 1 -.05.36c-.06.29-.13.62-.2 1-.18.87-.43 2.14-.71 3.71-.58 3.14-1.27 7.5-1.78 12.35s-.73 9.25-.81 12.45c-.05 1.59-.07 2.89-.07 3.78v1a1.48 1.48 0 0 1 0 .36 2.63 2.63 0 0 1 0-.36c0-.3 0-.64 0-1 0-.9 0-2.19 0-3.79 0-3.19.25-7.61.75-12.46s1.23-9.22 1.84-12.35c.31-1.57.58-2.84.78-3.71l.24-1c-.05-.22.01-.34.01-.34z"/><path d="m328.85 154.39s0 .13-.08.36-.18.63-.29 1c-.25.88-.6 2.16-1 3.74a121.74 121.74 0 0 0 -3.78 25.18c-.08 1.63-.12 2.95-.13 3.86v1.05s0 .37 0 .37 0-.12 0-.37 0-.64 0-1.05c0-.91 0-2.23.06-3.87a114 114 0 0 1 1.09-12.66 112.37 112.37 0 0 1 2.61-12.5c.42-1.58.8-2.85 1.08-3.72l.32-1c.07-.27.12-.39.12-.39z"/><path d="m259.18 223.27.93-.41 2.65-1.11 9.79-4.07 32.33-13.35 1.56-.64-.06.08a169.13 169.13 0 0 1 8.51-32.72c1.51-4 2.86-7.26 3.84-9.45s1.57-3.39 1.57-3.39l-.38.89-1.11 2.53c-1 2.21-2.29 5.42-3.78 9.47a172.92 172.92 0 0 0 -8.45 32.7.09.09 0 0 1 -.06.08l-1.56.65-32.35 13.29-9.82 4-2.67 1.08z"/><path d="m349.42 154.54a30.7 30.7 0 0 1 -.89-3.5 30.55 30.55 0 0 1 -.68-3.56 33.53 33.53 0 0 1 .88 3.51 30 30 0 0 1 .69 3.55z"/></g><path d="m349 189.21a121.18 121.18 0 0 1 2.51-15.73 53.74 53.74 0 0 1 6.77-17c.4-.63.82-1.49.33-2.05s-1.66-.13-2.31.46c-4.25 3.89-6.91 9.27-8.43 14.83s-2 11.35-2.46 17.09c-.09 1.11-.11 2.25-.11 2.25z" opacity=".4"/><path d="m354.52 153.26s-13.74 15-12.68 40.91l5-.36s.27-28.43 12.19-39.81a7.28 7.28 0 0 0 -4.51-.74z" fill="#263238"/><path d="m347.19 188a14.86 14.86 0 0 1 -.13 2.81 27.47 27.47 0 0 1 -.37 3.05 3.32 3.32 0 0 1 -.81 1.75 2.61 2.61 0 0 1 -2.06.42 2.73 2.73 0 0 1 -1-.43 2.21 2.21 0 0 1 -.73-.76 4.31 4.31 0 0 1 -.46-1.84c-.08-1.17 0-2.2 0-3.07a9.5 9.5 0 0 1 .29-2.8c.06 0 0 1.07.08 2.8 0 .86 0 1.9.14 3a4.1 4.1 0 0 0 .42 1.63 1.78 1.78 0 0 0 .57.59 2.36 2.36 0 0 0 .8.35 2.17 2.17 0 0 0 1.63-.3 3.18 3.18 0 0 0 .68-1.47c.26-1.08.32-2.13.46-3a15.36 15.36 0 0 1 .49-2.73z" fill="#455a64"/><path d="m345.5 192.71a1 1 0 1 1 -1-1 1 1 0 0 1 1 1z" fill="#455a64"/><path d="m322.52 189.86c-.84-10.54 1.23-20.87 4.66-30.87.55-1.59 1.69-4.2 1.24-4.27s-2.7 3.39-2.88 3.73a53.48 53.48 0 0 0 -5.7 31.68" opacity=".4"/><path d="m325.31 155.12s-11 13-10.62 39l4.81-.25s.11-28.59 10.21-40.33a7 7 0 0 0 -4.4 1.58z" fill="#263238"/><path d="m319.7 188.94a21.16 21.16 0 0 1 .13 2.83 14.15 14.15 0 0 1 -.25 3.09 3.81 3.81 0 0 1 -.77 1.77 2.52 2.52 0 0 1 -2.06.49 2.21 2.21 0 0 1 -.54-.16l-.46-.25a2.24 2.24 0 0 1 -.75-.71 4.24 4.24 0 0 1 -.48-1.85 29.83 29.83 0 0 1 0-3.09 10.1 10.1 0 0 1 .29-2.82c.07 0 0 1.08.08 2.83 0 .86 0 1.91.14 3a4.24 4.24 0 0 0 .44 1.63 1.76 1.76 0 0 0 .6.58 3.78 3.78 0 0 0 .4.22 2.2 2.2 0 0 0 .41.12 2.1 2.1 0 0 0 1.61-.34 3.39 3.39 0 0 0 .66-1.51 15.82 15.82 0 0 0 .35-3 11.84 11.84 0 0 1 .2-2.83z" fill="#455a64"/><path d="m318.36 193.75a1 1 0 1 1 -1-1 1 1 0 0 1 1 1z" fill="#455a64"/><path d="m361.88 208c0 .05-2.14.17-4.78.26s-4.78.12-4.79.06 2.14-.17 4.78-.26 4.79-.14 4.79-.06z" fill="#fafafa"/><path d="m365.32 253a2.64 2.64 0 0 1 -.57.68 8.76 8.76 0 0 1 -1.94 1.42 10.06 10.06 0 0 1 -13.81-4.1 9.07 9.07 0 0 1 -.87-2.24 2.26 2.26 0 0 1 -.11-.88 19 19 0 0 0 1.3 2.93 10.07 10.07 0 0 0 13.35 3.89 19.49 19.49 0 0 0 2.65-1.7z" fill="#455a64"/><path d="m330.6 256.42 5.34-3.65-7.09-9.91-.84.71a29.46 29.46 0 0 1 -5.12.14 7.79 7.79 0 0 1 -2.65-.59 11.9 11.9 0 0 1 -2.92-1.56 1 1 0 0 0 -1.76.82c.19.9 2.41 2.39 5.37 3.8 2.65 1.27 1.43 3.84.16 4.95s-7 5.06-7 5.06l9.19 1.78a9.62 9.62 0 0 0 7.32-1.55z" fill="#ffbe9d"/><path d="m324.34 253.73a7.11 7.11 0 0 1 -3.45 2.41 7 7 0 0 1 -4.17.53 33.47 33.47 0 0 0 4-1 37.39 37.39 0 0 0 3.62-1.94z" fill="#eb996e"/><path d="m326.76 255.55c.11.07-.5 1.12-1.78 1.79a3.26 3.26 0 0 1 -2.48.46c0-.16 1.08-.3 2.23-.92s1.91-1.42 2.03-1.33z" fill="#eb996e"/><path d="m361.43 255.57s0 8.87-3.53 11.28a3.57 3.57 0 0 0 -1 .84 1 1 0 0 0 0 1.19c.38.39 1 .22 1.52 0a11.28 11.28 0 0 0 3.86-2.95q0 5.19 0 10.37a4.23 4.23 0 0 0 .22 1.66 1.45 1.45 0 0 0 1.27.95c1.1 0 1.42-1.5 1.41-2.6 0-2.73-.07-5.46-.11-8.19l.57 7.89c.07 1 .49 2.25 1.45 2.14s1.1-1.35 1-2.27l-.78-10.44c.47 2.5.95 5 1.42 7.51a2.17 2.17 0 0 0 .85 1.62 1.5 1.5 0 0 0 1.94-.9 4.36 4.36 0 0 0 .05-2.38c-.46-2.79-.93-5.59-1.39-8.38a30 30 0 0 0 1.64 5.94 1.16 1.16 0 0 0 2.06.14.64.64 0 0 0 .06-.18 3.5 3.5 0 0 0 -.14-1.57l-2.21-9.24c-.83-3.43-1.83-7.12-4.62-9.27a10.14 10.14 0 0 0 -8.86-1.31 22.44 22.44 0 0 0 -8 4.65s4.6 6.19 11.32 3.5z" fill="#ff725e"/><path d="m356.52 252c0-.06.37-.24 1-.24a4 4 0 0 1 2.42.87 3.89 3.89 0 0 1 1.36 2.17c.14.65.06 1.06 0 1.06s-.12-.38-.34-.95a4.46 4.46 0 0 0 -1.34-1.88 4.54 4.54 0 0 0 -2.11-.9c-.58-.07-.98-.03-.99-.13z" fill="#263238"/><path d="m357.23 254.3c-.07-.12.88-.65 2.14-.46s2 .95 1.93 1-.89-.38-2-.53-2.02.13-2.07-.01z" fill="#263238"/><path d="m361.31 255.65s-.51.16-1 .29a8.43 8.43 0 0 1 -1.78.32c-.83 0-1.66-.07-2.48-.17a1.34 1.34 0 0 1 -1.11-.54 1.27 1.27 0 0 1 .26-1.19 7.18 7.18 0 0 1 2.71-2.39 5 5 0 0 1 2.64 1.64 3.18 3.18 0 0 1 .76 2.04z" opacity=".2"/></svg>