<svg viewBox="0 0 500 500" xmlns="http://www.w3.org/2000/svg"><path d="m408.72 102.26-2.11-3.48c-17.78-29.3-49.92-47-83.82-44.82a88.91 88.91 0 0 0 -13 1.79c-30.82 6.59-57.63 29.9-68.75 59.74-6.53 17.55-8.36 37.76-20.76 51.69-16.15 18.14-43.55 18.71-67.65 18s-51.52-.12-67.59 18.09c-10.04 11.36-13.23 27.57-12.41 42.84 2.14 40.42 30.31 76.56 66.13 94.53s78 19.57 117.2 11.67c54.92-11.07 107.15-41.47 138.54-88.43s39.34-110.94 14.22-161.62z" fill="#f5f5f5"/><circle cx="138.28" cy="93.77" fill="#f5f5f5" r="38.66" transform="matrix(.70710678 -.70710678 .70710678 .70710678 -25.81 125.25)"/><path d="m483.35 443.83c0 .15-105.38.26-235.34.26s-235.36-.09-235.36-.26 105.35-.26 235.35-.26 235.35.12 235.35.26z" fill="#263238"/><path d="m411.77 397.6c-.14 0-1.3-4.78-2.59-10.74s-2.18-10.86-2.09-10.86 1.3 4.78 2.6 10.75 2.23 10.82 2.08 10.85z" fill="#263238"/><path d="m393.79 379.45h29v11.73h-29z" fill="#fff" transform="matrix(.97964538 -.20073597 .20073597 .97964538 -69.03 89.79)"/><path d="m423.67 388.15a5.81 5.81 0 0 1 -.21-.82l-.52-2.29c-.43-2-1.05-4.85-1.81-8.34l.22.14-28.35 5.9.2-.31v.07.1.18l.08.38.15.75.3 1.49c.21 1 .4 2 .6 2.92.39 1.92.77 3.79 1.14 5.58l-.3-.19 20.32-4.05 6-1.14 1.61-.3a3.58 3.58 0 0 1 .58-.09 2.46 2.46 0 0 1 -.51.14l-1.55.35-5.86 1.27-20.44 4.31h-.24l-.08-.2c-.37-1.79-.76-3.66-1.15-5.58l-.6-2.92c-.11-.49-.21-1-.31-1.49l-.15-.75-.08-.37v-.19-.09-.08c0 .07.39-.58.21-.3l28.42-5.75h.18v.17c.69 3.55 1.24 6.44 1.64 8.49.18.95.31 1.71.42 2.27s.1.75.09.74z" fill="#263238"/><path d="m420.17 384s-.11.12-.37.28a6.13 6.13 0 0 1 -1.21.56 6.72 6.72 0 0 1 -4.86-.16 1.88 1.88 0 0 1 -1.06-1.35 1.48 1.48 0 0 1 .17-1 1.08 1.08 0 0 1 .89-.55 1.54 1.54 0 0 1 1.53 1.3 3 3 0 0 1 -.54 2 4.8 4.8 0 0 1 -3.73 2.19 4.72 4.72 0 0 1 -4.15-2.05 1.82 1.82 0 0 1 -.27-1.3 1.33 1.33 0 0 1 .86-1 1.21 1.21 0 0 1 1.28.41 1.61 1.61 0 0 1 .41 1.22 3.75 3.75 0 0 1 -1.08 2 7 7 0 0 1 -1.65 1.38 4.54 4.54 0 0 1 -2 .64 3.6 3.6 0 0 1 -1.93-.4 3 3 0 0 1 -1.31-1.29 1.82 1.82 0 0 1 -.05-1.74 1 1 0 0 1 .77-.44.79.79 0 0 1 .73.46 1.92 1.92 0 0 1 -.06 1.39 5.29 5.29 0 0 1 -1.1 1.82 5.4 5.4 0 0 1 -1 .84 1.38 1.38 0 0 1 -.43.19 8.19 8.19 0 0 0 1.31-1.17 5.16 5.16 0 0 0 1-1.77 1.63 1.63 0 0 0 0-1.15c-.14-.36-.67-.32-.89 0a1.41 1.41 0 0 0 .1 1.34 2.54 2.54 0 0 0 1.15 1.09 3.47 3.47 0 0 0 3.45-.26 6.86 6.86 0 0 0 1.52-1.3 3.3 3.3 0 0 0 .94-1.73c.09-.59-.5-1.29-1-1.1a.85.85 0 0 0 -.51.66 1.33 1.33 0 0 0 .21.93 4.23 4.23 0 0 0 3.71 1.86 4.33 4.33 0 0 0 3.35-1.94 2.5 2.5 0 0 0 .48-1.7 1.09 1.09 0 0 0 -1.05-1c-.48 0-.76.54-.68 1a1.48 1.48 0 0 0 .84 1.09 6 6 0 0 0 2.59.57 7.64 7.64 0 0 0 2-.28 14.38 14.38 0 0 0 1.64-.54z" fill="#263238"/><path d="m441.57 345.22c-4.3 2.3-8.08 5.89-9.77 10.47s-.27 11.44 3.15 14.93c6.3.64 12.51-6 15.75-11.43s4.2-11.93 4.82-18.23a45 45 0 0 0 -13.95 4.26z" fill="#455a64"/><path d="m434.39 391.55a7.25 7.25 0 0 1 -.27-1.35c-.16-.87-.31-2.15-.44-3.73a57.8 57.8 0 0 1 3.45-24.4c.56-1.48 1.06-2.67 1.45-3.46a6.77 6.77 0 0 1 .65-1.23 8.06 8.06 0 0 1 -.46 1.31c-.33.81-.78 2-1.29 3.5a66.24 66.24 0 0 0 -2.88 12 67 67 0 0 0 -.55 12.29c.08 1.57.18 2.85.27 3.73a6.43 6.43 0 0 1 .07 1.34z" fill="#263238"/><path d="m429.74 365.75a10.79 10.79 0 0 0 -5.68-5.42 17.15 17.15 0 0 0 -7.87-1.18 43.42 43.42 0 0 0 -7.91 1.4c.54 2.89 1.12 5.88 2.83 8.28a14.32 14.32 0 0 0 4.68 4 16.49 16.49 0 0 0 6.32 2.19 11.57 11.57 0 0 0 6.89-1.62 7.85 7.85 0 0 0 .74-7.65z" fill="#455a64"/><path d="m415.13 362.9a4.66 4.66 0 0 1 1 .39c.64.27 1.54.7 2.63 1.29a39.42 39.42 0 0 1 7.92 5.52 24.64 24.64 0 0 1 5.86 7.66c.28.56.46 1.09.65 1.55s.28.87.37 1.2a3.79 3.79 0 0 1 .19 1.06c-.1 0-.4-1.48-1.54-3.65a26.77 26.77 0 0 0 -5.89-7.44 45.38 45.38 0 0 0 -7.74-5.58c-1.06-.63-1.93-1.1-2.54-1.43a3.6 3.6 0 0 1 -.91-.57z" fill="#263238"/><path d="m433.64 389c-11.74-.61-24.27 5.8-32.81 14.19h68.17c-10.08-6.26-23.63-13.62-35.36-14.19z" fill="#aa6755"/><path d="m404.81 403.15s10.16-5 14.69-6.31 18.79-.8 18.79-.8l24.62 7.11z" fill="#99584b"/><path d="m429.31 392.32a1.38 1.38 0 1 0 .24-.32" fill="#99584b"/><path d="m399.37 400.02h70.57v10.79h-70.57z" fill="#ff725e"/><path d="m457.69 444.3h-46.98l-7.06-36.76h62.01z" fill="#ff725e"/><path d="m469 410.85c0 .14-15.53.26-34.69.26s-34.68-.12-34.68-.26 15.52-.27 34.68-.27 34.69.12 34.69.27z" fill="#263238"/><path d="m404.29 410.85s17.81 2.82 30.37 2.89c13.77.08 30.28-2.89 30.28-2.89z" opacity=".3"/><path d="m459.57 435.66c0 .14-11.31.26-25.26.26s-25.26-.12-25.26-.26 11.31-.27 25.26-.27 25.26.12 25.26.27z" fill="#fff"/><path d="m459.57 433.11c0 .15-11.31.26-25.26.26s-25.26-.11-25.26-.26 11.31-.26 25.26-.26 25.26.15 25.26.26z" fill="#fff"/><path d="m48.47 398c-.14 0-1.25-4.55-2.49-10.23s-2.11-10.3-2-10.33 1.25 4.54 2.48 10.22 2.15 10.27 2.01 10.34z" fill="#263238"/><path d="m31.35 380.68h27.61v11.17h-27.61z" fill="#fff" transform="matrix(.97964538 -.20073597 .20073597 .97964538 -76.61 16.92)"/><path d="m59.79 389s-.08-.28-.2-.78-.29-1.27-.49-2.18c-.42-1.93-1-4.62-1.73-7.94l.22.14-27 5.62.2-.31v.07.09.18l.08.36.14.71c.1.48.2.95.29 1.42.19.94.38 1.86.57 2.78.37 1.83.73 3.61 1.08 5.32l-.29-.2 19.34-3.86 5.66-1.09 1.54-.28c.35-.07.54-.09.55-.09a2 2 0 0 1 -.48.13l-1.47.34-5.58 1.21-19.42 4.11-.25.05v-.24c-.35-1.71-.72-3.49-1.09-5.32-.19-.91-.38-1.84-.58-2.78-.09-.47-.19-.94-.29-1.41l-.14-.72-.08-.35v-.18-.09-.07l.21-.31 27.05-5.46h.18v.18c.65 3.38 1.18 6.12 1.55 8.08.17.9.3 1.62.4 2.16a3.88 3.88 0 0 1 .03.71z" fill="#263238"/><path d="m56.46 385a1.33 1.33 0 0 1 -.35.26 5.46 5.46 0 0 1 -1.15.54 6.36 6.36 0 0 1 -4.63-.15 1.79 1.79 0 0 1 -1-1.29 1.47 1.47 0 0 1 .16-.93 1.09 1.09 0 0 1 .86-.53 1.47 1.47 0 0 1 1.46 1.26 2.73 2.73 0 0 1 -.51 1.94 4.5 4.5 0 0 1 -7.52.14 1.79 1.79 0 0 1 -.28-1.24 1.31 1.31 0 0 1 .83-1 1.17 1.17 0 0 1 1.23.4 1.5 1.5 0 0 1 .39 1.17 3.52 3.52 0 0 1 -1 1.93 6.52 6.52 0 0 1 -1.57 1.31 4.31 4.31 0 0 1 -1.88.62 3.51 3.51 0 0 1 -1.83-.39 2.85 2.85 0 0 1 -1.26-1.24 1.7 1.7 0 0 1 0-1.65 1 1 0 0 1 .74-.43.77.77 0 0 1 .7.45 1.82 1.82 0 0 1 -.06 1.33 4.91 4.91 0 0 1 -1 1.72 4.34 4.34 0 0 1 -1 .8c-.25.15-.39.2-.4.18a7.82 7.82 0 0 0 1.25-1.11 4.88 4.88 0 0 0 .92-1.69 1.52 1.52 0 0 0 0-1.09.48.48 0 0 0 -.84 0 1.36 1.36 0 0 0 .1 1.27 2.42 2.42 0 0 0 1.09 1 3.28 3.28 0 0 0 3.27-.25 6.24 6.24 0 0 0 1.45-1.23 3.07 3.07 0 0 0 .89-1.64c.09-.56-.47-1.21-.95-1a.8.8 0 0 0 -.48.62 1.25 1.25 0 0 0 .2.88 4 4 0 0 0 3.49 1.71 4.09 4.09 0 0 0 3.18-1.84 2.39 2.39 0 0 0 .46-1.61 1 1 0 0 0 -1-.89c-.45 0-.71.51-.64 1a1.43 1.43 0 0 0 .79 1 5.73 5.73 0 0 0 2.47.54 7.38 7.38 0 0 0 1.93-.26c.96-.32 1.47-.68 1.49-.61z" fill="#263238"/><path d="m64.11 391.05c-14.68-.73-23.42 6.31-23.42 6.31h49a68.91 68.91 0 0 0 -25.58-6.31z" fill="#aa6755"/><path d="m78.44 321.43c-4.44 2.41-8.44 6.17-10.21 10.95s-.23 11.95 3.29 15.62c6.59.67 13.08-6.25 16.46-11.94s4.39-12.47 5-19.06c-4.98.84-10.04 2-14.54 4.43z" fill="#455a64"/><path d="m63.82 392a2.91 2.91 0 0 1 -.13-.62c-.06-.41-.18-1-.25-1.79a54.22 54.22 0 0 1 -.31-6.65 89.62 89.62 0 0 1 3.05-21.71 108.75 108.75 0 0 1 7.72-20.53c.64-1.25 1.2-2.39 1.72-3.37l1.38-2.52.92-1.56a3.29 3.29 0 0 1 .34-.52 2.48 2.48 0 0 1 -.25.58c-.22.41-.49.94-.83 1.6l-1.34 2.52-1.65 3.41a117.8 117.8 0 0 0 -7.55 20.49 95 95 0 0 0 -3.18 21.58c-.1 2.8 0 5.07.14 6.63 0 .78.13 1.38.15 1.8a3.32 3.32 0 0 1 .07.66z" fill="#263238"/><path d="m59.69 369.12a9.5 9.5 0 0 0 -5-4.8 15.35 15.35 0 0 0 -7-1.05 39.81 39.81 0 0 0 -7 1.24c.48 2.56 1 5.21 2.51 7.33a12.67 12.67 0 0 0 4.14 3.52 14.6 14.6 0 0 0 5.6 1.93 10.16 10.16 0 0 0 6.14-1.4 7 7 0 0 0 .61-6.77z" fill="#455a64"/><path d="m77.23 370.53a11.13 11.13 0 0 0 8-1.61 17.83 17.83 0 0 0 5.7-6 45.24 45.24 0 0 0 3.51-7.57c-2.78-1.26-5.68-2.55-8.73-2.51a14.76 14.76 0 0 0 -6.18 1.63 17.1 17.1 0 0 0 -5.62 4.08 12 12 0 0 0 -2.77 6.85 8.14 8.14 0 0 0 6.09 5.13z" fill="#455a64"/><path d="m46.76 366.6a3.74 3.74 0 0 1 .89.33c.56.24 1.37.61 2.33 1.13a34.48 34.48 0 0 1 7.02 4.94 21.8 21.8 0 0 1 5.19 6.8 14.53 14.53 0 0 1 .9 2.44 3.42 3.42 0 0 1 .16.94c-.1 0-.37-1.31-1.39-3.22a23.56 23.56 0 0 0 -5.21-6.58 41.18 41.18 0 0 0 -6.85-4.95c-1.87-1.16-3.09-1.74-3.04-1.83z" fill="#263238"/><path d="m79.41 360.12c0 .09-1 .33-2.63 1a25.8 25.8 0 0 0 -5.78 3.55 34 34 0 0 0 -4.86 4.73c-1.12 1.34-1.72 2.24-1.79 2.2a9.87 9.87 0 0 1 1.5-2.42 27.32 27.32 0 0 1 4.82-4.92 22.69 22.69 0 0 1 6-3.46 10.62 10.62 0 0 1 1.14-.37 5.83 5.83 0 0 1 .87-.22c.46-.09.73-.13.73-.09z" fill="#263238"/><path d="m39.06 397.36h50.6v65.64h-50.6z" fill="#e0e0e0"/><g fill="#263238"><path d="m89.47 402c0 .14-11.24.26-25.11.26s-25.12-.12-25.12-.26 11.24-.26 25.12-.26 25.11.08 25.11.26z"/><path d="m89.47 407.62c0 .14-11.24.26-25.11.26s-25.12-.12-25.12-.26 11.24-.26 25.12-.26 25.11.11 25.11.26z"/><path d="m89.47 413.27c0 .14-11.24.26-25.11.26s-25.12-.12-25.12-.26 11.24-.27 25.12-.27 25.11.12 25.11.27z"/><path d="m89.47 418.92c0 .14-11.24.26-25.11.26s-25.12-.12-25.12-.26 11.24-.26 25.12-.26 25.11.11 25.11.26z"/><path d="m89.47 424.57c0 .14-11.24.26-25.11.26s-25.12-.12-25.12-.26 11.24-.26 25.12-.26 25.11.12 25.11.26z"/><path d="m89.47 430.22c0 .14-11.24.26-25.11.26s-25.12-.12-25.12-.26 11.24-.22 25.12-.22 25.11.08 25.11.22z"/><path d="m89.47 435.87c0 .14-11.24.26-25.11.26s-25.12-.12-25.12-.26 11.24-.26 25.12-.26 25.11.12 25.11.26z"/><path d="m89.47 441.52c0 .15-11.24.26-25.11.26s-25.12-.11-25.12-.26 11.24-.26 25.12-.26 25.11.12 25.11.26z"/><path d="m89.47 447.17c0 .15-11.24.26-25.11.26s-25.12-.11-25.12-.26 11.24-.26 25.12-.26 25.11.09 25.11.26z"/><path d="m89.47 452.82c0 .15-11.24.26-25.11.26s-25.12-.11-25.12-.26 11.24-.26 25.12-.26 25.11.12 25.11.26z"/><path d="m89.47 458.47c0 .15-11.24.26-25.11.26s-25.12-.11-25.12-.26 11.24-.26 25.12-.26 25.11.12 25.11.26z"/><path d="m319.42 133.49a8.6 8.6 0 0 0 9.24-6.65 21.75 21.75 0 0 1 -15.45 1 18.91 18.91 0 0 0 -11.71-34.06c-8 .18-17.05 8.66-19.28 16.31l10.68 17.76a22.73 22.73 0 0 0 38.1 4.51 18.43 18.43 0 0 1 -11.58 1.13z"/><path d="m314.05 176.41c-5.33-37-14.77-77.56-67.59-73.78 0 0-36.08 7.4-51.54 31.43-9.1 14.13-13.45 73.91-15 122-.07 2 .75 15.62.69 17.53l139.83 11.64 16.75-5s-19.82-80.83-23.14-103.82z"/></g><path d="m239.43 116.4 3.31-3.15 35.71 14.39a10 10 0 0 1 9.41 9.65l-.31 116.36c0 7.89-1.54 14.73-6.3 21l-5 6.62c-11.43 15.1-35 13.86-44-2.78a12.33 12.33 0 0 1 -1.27-3 24.55 24.55 0 0 1 -.53-2.6c-1.06-9.36-1.12-17.48-1.12-17.48-.64-10.28-.85-14.5-.85-14.4s-21.87-2.52-27.79-30.59c-2.94-14-2.38-33.18-1.56-52.09 1.12-26.15 19.27-41.96 40.3-41.93z" fill="#ffbf9d"/><path d="m246.75 177.5a3.64 3.64 0 0 0 3.68 3.49 3.48 3.48 0 0 0 3.58-3.46 3.63 3.63 0 0 0 -3.68-3.49 3.48 3.48 0 0 0 -3.58 3.46z" fill="#263238"/><path d="m209.83 177.5a3.64 3.64 0 0 0 3.69 3.49 3.49 3.49 0 0 0 3.58-3.46 3.63 3.63 0 0 0 -3.68-3.49 3.48 3.48 0 0 0 -3.59 3.46z" fill="#263238"/><path d="m202.84 165.82c.47.45 3.12-1.72 7-1.91s6.86 1.63 7.26 1.13c.2-.22-.3-1-1.59-1.9a10 10 0 0 0 -5.85-1.49 9.64 9.64 0 0 0 -5.56 2.11c-1.1.99-1.49 1.86-1.26 2.06z" fill="#263238"/><path d="m242.48 166.23c.52.4 2.93-2 6.79-2.62s7 .91 7.35.37c.17-.24-.41-1-1.79-1.73a10 10 0 0 0 -6-.87 9.5 9.5 0 0 0 -5.32 2.67c-1.01 1.09-1.28 2-1.03 2.18z" fill="#263238"/><path d="m228.83 194.66c0-.22-2.44-.52-6.4-.83-1-.05-2-.2-2.16-.87s.09-1.81.52-3c.82-2.46 1.67-5 2.57-7.74 3.55-11 6.07-20.06 5.63-20.2s-3.69 8.68-7.24 19.7c-.86 2.71-1.67 5.3-2.45 7.78-.32 1.15-.9 2.47-.32 3.94a2.52 2.52 0 0 0 1.72 1.37 6.21 6.21 0 0 0 1.7.15c3.97.04 6.43-.08 6.43-.3z" fill="#263238"/><path d="m228.45 241a72.15 72.15 0 0 0 37.4-12s-8.55 20.07-37 18.84z" fill="#ff9a6c"/><path d="m231 204a7 7 0 0 1 6.17-2.93 6.44 6.44 0 0 1 4.56 2.16 4.08 4.08 0 0 1 .54 4.64c-1 1.53-3.16 2-5 1.55a14.76 14.76 0 0 1 -5.14-2.73 4.43 4.43 0 0 1 -1.18-1.1 1.3 1.3 0 0 1 -.06-1.45" fill="#ff9a6c"/><path d="m240.46 196.79c-.63 0-.43 4.23-3.91 7.42s-8 2.95-8 3.55c0 .27 1.05.77 3 .73a10.59 10.59 0 0 0 6.71-2.72 9.18 9.18 0 0 0 3-6.22c.02-1.78-.51-2.8-.8-2.76z" fill="#263238"/><path d="m238.74 151c.54 1 4.32-.1 8.94-.25s8.48.53 8.94-.5c.2-.5-.59-1.39-2.23-2.18a15.57 15.57 0 0 0 -13.62.58c-1.56.92-2.27 1.88-2.03 2.35z" fill="#263238"/><path d="m203.4 149c.73.85 3.38-.2 6.61-.41s6 .3 6.59-.66c.25-.47-.22-1.33-1.46-2.11a9.13 9.13 0 0 0 -5.45-1.19 9.26 9.26 0 0 0 -5.19 2.05c-1.09 1.01-1.42 1.94-1.1 2.32z" fill="#263238"/><path d="m287.15 187s-20 6.23-31.33-43.15c-3.87-16.88-19.52-30.55-19.52-30.55l6.35-1.91s39.45 11.06 40.11 11.61 9.95 20.4 9.95 20.4z" fill="#263238"/><path d="m282.22 185.11c-.1-2.11 2.09-7.2 4.15-7.63 5.52-1.14 15.56-1.2 16.36 12.91 1.09 19.3-18.5 16.41-18.57 15.86s-1.59-13.86-1.94-21.14z" fill="#ffbf9d"/><path d="m289.64 198.61c.08-.07.35.22.93.44a3.31 3.31 0 0 0 2.52-.09c2-.86 3.53-4.19 3.42-7.67a11.12 11.12 0 0 0 -1.21-4.76 3.89 3.89 0 0 0 -2.67-2.44 1.73 1.73 0 0 0 -1.94 1c-.22.56-.08.94-.18 1s-.43-.29-.32-1.1a2.14 2.14 0 0 1 .69-1.25 2.54 2.54 0 0 1 1.83-.6c1.49 0 2.91 1.31 3.68 2.79a11.53 11.53 0 0 1 1.47 5.31c.1 3.9-1.69 7.65-4.43 8.61a3.61 3.61 0 0 1 -3.1-.33c-.63-.44-.75-.87-.69-.91z" fill="#ff9a6c"/><path d="m253.17 149.07c-1.36-5-2.83-9.78-4.44-14a80.1 80.1 0 0 0 -5-10.89 56.25 56.25 0 0 0 -4.42-6.78c-.57-.77-1.06-1.32-1.38-1.71a4.14 4.14 0 0 0 -.51-.57 3.31 3.31 0 0 0 .43.63c.29.41.76 1 1.3 1.77a63.35 63.35 0 0 1 4.26 6.83 83.26 83.26 0 0 1 4.91 10.89c1.58 4.22 3 9 4.38 14s2.46 9.88 4.21 14.07a33.23 33.23 0 0 0 3 5.7 24.32 24.32 0 0 0 3.7 4.23 17.18 17.18 0 0 0 7.06 3.91 10.75 10.75 0 0 0 2.94.39c0-.07-1.06-.07-2.89-.59a17.29 17.29 0 0 1 -6.87-4 24 24 0 0 1 -3.58-4.2 31.76 31.76 0 0 1 -2.92-5.64" fill="#263238"/><path d="m131.69 370.19s21.07-66.82 26-76.69c7.6-15.08 15.44-20.75 23.43-24.38 6.11-2.78 4.56 115.77 4.56 115.77s-46.08-2.53-53.99-14.7z" fill="#ff725e"/><path d="m319.66 259.6-31.8-6s-3.51 21.65-31.16 19.32-27.53-17.48-27.53-17.48l-48.67 13.92.91 21.9 3.74 93.59s5.89 42 5.08 47 9.89 25.58 9.89 25.58l137.06-4.05 4.12-50.38 2.7-17 43.18-17.68c1.41-2.32-11.16-46-25.46-76.35a58.41 58.41 0 0 0 -42.06-32.37z" fill="#ff725e"/><path d="m380.3 371s8.52 54.51 7.83 63.42-8.95 24-26.41 27.14-58.47-9.16-58.47-9.16l-3.25-26.13 7.52-.69s22 .05 26-.73 12.23-4.38 12.23-4.38l-1.26-34.75z" fill="#ffbf9d"/><path d="m345.73 421a3.79 3.79 0 0 1 1-1 10.79 10.79 0 0 1 3.37-1.68 21 21 0 0 1 12.3.17 14.25 14.25 0 0 1 5.8 3.66 15.3 15.3 0 0 1 3.09 4.66 13.3 13.3 0 0 1 1 3.64 4.08 4.08 0 0 1 0 1.38 24.19 24.19 0 0 0 -1.45-4.81 15.83 15.83 0 0 0 -3.1-4.42 14 14 0 0 0 -5.55-3.44 22 22 0 0 0 -11.93-.36 14.52 14.52 0 0 0 -4.53 2.2z" fill="#ff9a6c"/><path d="m143 377.27s-5.42 54-4.65 62.89 8.6 26.92 26.09 29.93 58.38-9.76 58.38-9.76l1.41-35.1s-8.46-2.23-13.94 3.69c-5.92 6.39-15.65 4.59-18 4.15a104.27 104.27 0 0 1 -10.72-3.07l3.58-45.14z" fill="#ffbf9d"/><path d="m181.57 430a16.14 16.14 0 0 0 -4.72-2.23 25.57 25.57 0 0 0 -12.51-.24 13.3 13.3 0 0 0 -5.91 3.36 15.83 15.83 0 0 0 -3.29 4.57 23.51 23.51 0 0 0 -1.5 5 4.75 4.75 0 0 1 0-1.43 12.73 12.73 0 0 1 1-3.8 15.41 15.41 0 0 1 3.28-4.82 13.51 13.51 0 0 1 6.19-3.59 24.44 24.44 0 0 1 12.83.45 12.13 12.13 0 0 1 3.53 1.73 5.46 5.46 0 0 1 .81.69c.23.18.31.31.29.31z" fill="#ff9a6c"/><path d="m220.39 427.65 3.85-2.42 15.12 6.84s11.87-.76 14.16 2.14 8.44 7.51 5.13 18.81-15 16.08-15 16.08l-18.41-7.81-7.32-11.37 1.69-12.66z" fill="#ffbf9d"/><path d="m312 426.87-2-.67a16.93 16.93 0 0 0 -15 2.06l-4.5 3.07s-11.86-.76-14.15 2.13-8.45 7.52-5.14 18.82 15 16.08 15 16.08l18.41-7.81 7.38-11.38 7.09-21z" fill="#ffbf9d"/><path d="m304.47 432.37c-2-4.29-6.42-6.93-10.89-8.46s-9.22-2.21-13.6-4c-7-2.84-13.34-8.52-20.86-8-4.45.32-8.41 2.82-12.15 5.24l-15.15 9.85a32.87 32.87 0 0 0 -6.22 4.76 11.16 11.16 0 0 0 -3.31 6.93l80.11 2.39c3.02-1.38 3.46-5.7 2.07-8.71z" fill="#aa6755"/><path d="m226.42 444a13.51 13.51 0 0 1 -3.19-4.29 4.68 4.68 0 0 1 .79-5c1.27-1.19 3.18-1.17 4.84-1.65 3.32-.95 5.65-3.9 8.21-6.26s6.22-4.34 9.36-2.85a17.19 17.19 0 0 1 10.67-7 17 17 0 0 1 12.46 2.45c2.26 1.49 4.34 3.59 7 3.87 1.79.19 3.58-.49 5.37-.28 2.9.33 5.06 2.83 7.76 4 3.5 1.47 7.85.6 10.88 2.91 2.19 1.68 3.08 4.66 3 7.45-.26 7-6 12.81-12.54 15.11s-13.61 1.8-20.45 1c-14.66-1.67-29.26-4.48-43.16-9.52" fill="#aa6755"/><path d="m304 439.83a8.3 8.3 0 0 0 -6.3-7.47 46.36 46.36 0 0 0 -4.86-.39c-3.15-.36-6.42-1.89-9.32-.63-1.66.73-2.85 2.26-4.48 3.05-1.86.9-4 .71-6.11.69s-4.35.24-5.78 1.74c-1.23 1.31-2 3.57-3.78 3.56-2 0-2.66-2.85-4.46-3.73-1.45-.71-3.25.06-4.79-.42s-2.31-1.8-3.57-2.58c-1.73-1.09-3.94-1-6-.79l-7 .57c-5.23.43-11 1.09-14.59 4.89 0 0 22.5 16.85 41.86 14.33s39.18-12.82 39.18-12.82z" fill="#99584b"/><path d="m206.42 433.43a52.07 52.07 0 0 1 5-4.51 60.27 60.27 0 0 0 16.48 13c1-2.05 4.25-6.69 8-6a3.75 3.75 0 0 1 3.42 4c.8-2 3-5.45 6.58-4.72s4.25 5.24 4.25 5.24c1-1.69 3.58-2.54 3.58-2.54 5.2.1 4.94 5.77 4.94 5.77h.09a3.79 3.79 0 0 1 5.25 3.45c.12 3.65.23 9.86-.26 12-.72 3.14-6.52 2.71-6.52 2.71s-1.63 7-2.06 9.23-2.95 1.79-6 2-6.65-1.87-6.65-1.87-4.37 3.45-9.27 2.24a11.68 11.68 0 0 1 -7.09-5.84s-5.78-1-9.32-3.72-5.84-9.55-5.84-9.55c-4-.35-6.29-4.06-6.29-4.06z" fill="#ffbf9d"/><path d="m220.39 466.14a4.71 4.71 0 0 1 -1-.35 10.67 10.67 0 0 1 -2.6-1.69 20.22 20.22 0 0 1 -5.61-9.16l.34.24a6.57 6.57 0 0 1 -4.17-1.28 10.23 10.23 0 0 1 -1.71-1.52 6.39 6.39 0 0 1 -1.36-2 5 5 0 0 1 -.29-2.56c.14-.78.28-1.55.41-2.31.28-1.51.54-3 .79-4.36.51-2.74 1-5.23 1.38-7.38a8.53 8.53 0 0 1 1.52-2.56c.53-.67 1-1.23 1.41-1.67a8 8 0 0 1 1.32-1.32 11.55 11.55 0 0 1 -1.11 1.5c-.36.47-.81 1-1.3 1.73a8.6 8.6 0 0 0 -1.34 2.4c-.36 2.16-.78 4.65-1.23 7.4l-.75 4.37c-.13.76-.26 1.53-.4 2.31a4.18 4.18 0 0 0 .25 2.18c1.31 2.52 4 4.56 6.54 4.39h.26l.08.25a20.71 20.71 0 0 0 5.24 9 17.18 17.18 0 0 0 3.33 2.39z" fill="#ff9a6c"/><path d="m210.08 439a3.92 3.92 0 0 1 1.29.14 19.35 19.35 0 0 1 3.41.93 13.18 13.18 0 0 1 4.52 2.73 9.41 9.41 0 0 1 3 5.75 6.73 6.73 0 0 1 -2.44 5.95 5.29 5.29 0 0 1 -2.66 1.17 6 6 0 0 1 -2.5-.27 16.88 16.88 0 0 0 -3.35-.91c-.8-.07-1.24.09-1.26 0a2.19 2.19 0 0 1 1.27-.3 14 14 0 0 1 3.47.7 5.73 5.73 0 0 0 2.28.18 4.69 4.69 0 0 0 2.33-1.1 6.17 6.17 0 0 0 2.16-5.37 9 9 0 0 0 -2.73-5.35 13.49 13.49 0 0 0 -4.26-2.74c-2.73-1.13-4.56-1.43-4.53-1.51z" fill="#ff9a6c"/><path d="m222.09 438.88c.2.08-.2 1.23-.93 2.43s-1.34 2.18-1.52 2.1.17-1.21.9-2.45 1.38-2.14 1.55-2.08z" fill="#ff9a6c"/><path d="m239.34 440a4 4 0 0 1 -.07 1.22 28.77 28.77 0 0 1 -.62 3.27 51.77 51.77 0 0 1 -3.65 10.29 54.46 54.46 0 0 1 -5.66 9.4 30.19 30.19 0 0 1 -2.12 2.56c-.54.57-.85.87-.89.84s1-1.41 2.61-3.7a68.7 68.7 0 0 0 5.42-9.4 66.87 66.87 0 0 0 3.83-10.16c.73-2.68 1.03-4.38 1.15-4.32z" fill="#ff9a6c"/><path d="m250.17 440.48a4.73 4.73 0 0 1 0 1.26c0 .8-.13 2-.29 3.4a89 89 0 0 1 -2 11.11 80.39 80.39 0 0 1 -3.4 10.76c-.54 1.33-1 2.41-1.37 3.13a4.41 4.41 0 0 1 -.61 1.1 43.41 43.41 0 0 1 1.51-4.41c.95-2.71 2.15-6.49 3.18-10.75s1.72-8.16 2.15-11a37.88 37.88 0 0 1 .83-4.6z" fill="#ff9a6c"/><path d="m258.69 443.71a10.2 10.2 0 0 1 .25 2.86 61.62 61.62 0 0 1 -.33 6.9 68.21 68.21 0 0 1 -1 6.83 10.84 10.84 0 0 1 -.74 2.77c-.21 0 .52-4.34 1-9.67s.62-9.68.82-9.69z" fill="#ff9a6c"/><path d="m219.92 455.55a9.87 9.87 0 0 1 1.12-2c.91-1.51 1.85-3.07 2.87-4.78 1.12-1.87 2.11-3.58 2.8-4.82a14.12 14.12 0 0 1 1.16-2 5.5 5.5 0 0 1 -.71 2.24 54.11 54.11 0 0 1 -2.63 5c-2.23 3.68-4.42 6.51-4.61 6.36z" fill="#ff9a6c"/><path d="m238.76 443.42c-.1 0 .24-1.23.37-3.19a5.26 5.26 0 0 0 -.13-1.56 3.54 3.54 0 0 0 -.89-1.5 3.82 3.82 0 0 0 -3.71-1 8.25 8.25 0 0 0 -3.55 2.06 15.59 15.59 0 0 0 -2.09 2.74c-1 1.69-1.6 2.8-1.68 2.76a2.63 2.63 0 0 1 .3-.82 22.76 22.76 0 0 1 1.06-2.13 13.94 13.94 0 0 1 2.07-2.89 8.4 8.4 0 0 1 3.77-2.23 4.48 4.48 0 0 1 2.33.05 4.19 4.19 0 0 1 1.85 1.15 3.82 3.82 0 0 1 .95 1.72 5.49 5.49 0 0 1 .09 1.69 13.64 13.64 0 0 1 -.44 2.34 3.32 3.32 0 0 1 -.3.81z" fill="#ff9a6c"/><path d="m239.66 440.27s-.06-.24 0-.68a5.17 5.17 0 0 1 .62-1.76 5.49 5.49 0 0 1 1.95-2 5.58 5.58 0 0 1 6.47.64 5.56 5.56 0 0 1 1.51 2.34 4.94 4.94 0 0 1 .26 1.85 1.38 1.38 0 0 1 -.14.67 9.56 9.56 0 0 0 -.46-2.4 5.6 5.6 0 0 0 -1.49-2.1 5.26 5.26 0 0 0 -5.91-.59 5.56 5.56 0 0 0 -1.88 1.77 9.88 9.88 0 0 0 -.93 2.26z" fill="#ff9a6c"/><path d="m250.26 440.9a2.15 2.15 0 0 1 .76-1.77 3.61 3.61 0 0 1 1.88-1 4.17 4.17 0 0 1 2.61.37 5.81 5.81 0 0 1 2.93 3.58 4.27 4.27 0 0 1 .26 1.91c-.09 0-.2-.71-.61-1.78a5.82 5.82 0 0 0 -2.8-3.24 3.9 3.9 0 0 0 -2.3-.37 3.52 3.52 0 0 0 -1.72.83 4.85 4.85 0 0 0 -1.01 1.47z" fill="#ff9a6c"/><path d="m323.45 432.69a53.91 53.91 0 0 0 -5-4.52 60.56 60.56 0 0 1 -16.49 13c-1-2.06-4.25-6.7-8.05-6a3.76 3.76 0 0 0 -3.42 4c-.79-2-3-5.44-6.57-4.71s-4.25 5.24-4.25 5.24c-1-1.7-3.59-2.54-3.59-2.54-5.2.09-4.94 5.77-4.94 5.77l-.09-.05a3.8 3.8 0 0 0 -5.24 3.46c-.12 3.64-.24 9.85.25 12 .72 3.14 6.52 2.7 6.52 2.7s1.63 7 2.06 9.23 3 1.8 6 2 6.66-1.88 6.66-1.88 4.37 3.45 9.26 2.25a11.65 11.65 0 0 0 7.09-5.85s5.78-1 9.32-3.71 5.84-9.56 5.84-9.56c4-.34 6.29-4.06 6.29-4.06z" fill="#ffbf9d"/><path d="m309.48 465.39a3.65 3.65 0 0 0 1.06-.35 10.55 10.55 0 0 0 2.6-1.69 20.1 20.1 0 0 0 5.6-9.16l-.33.25a6.61 6.61 0 0 0 4.16-1.28 10.29 10.29 0 0 0 1.72-1.52 6.42 6.42 0 0 0 1.35-2 4.76 4.76 0 0 0 .29-2.55c-.14-.79-.28-1.56-.41-2.32-.27-1.5-.54-3-.79-4.35-.51-2.74-1-5.24-1.38-7.38a8.33 8.33 0 0 0 -1.52-2.56c-.53-.67-1-1.23-1.41-1.68a8.29 8.29 0 0 0 -1.31-1.31 11.14 11.14 0 0 0 1.1 1.49c.37.47.81 1.05 1.3 1.74a8.59 8.59 0 0 1 1.35 2.4c.35 2.15.77 4.65 1.23 7.39.23 1.4.48 2.87.74 4.38.13.76.27 1.52.4 2.3a4.12 4.12 0 0 1 -.25 2.19c-1.31 2.52-4 4.55-6.54 4.39h-.26l-.07.26a20.86 20.86 0 0 1 -5.24 9 16.19 16.19 0 0 1 -3.39 2.36z" fill="#ff9a6c"/><path d="m319.79 438.2a3.92 3.92 0 0 0 -1.29.14 20.52 20.52 0 0 0 -3.41.93 13.53 13.53 0 0 0 -4.52 2.73 9.52 9.52 0 0 0 -3 5.75 6.74 6.74 0 0 0 2.43 5.95 5.21 5.21 0 0 0 2.67 1.18 6.05 6.05 0 0 0 2.5-.28 16.82 16.82 0 0 1 3.34-.91c.8-.07 1.25.1 1.26 0a2 2 0 0 0 -1.27-.3 13.39 13.39 0 0 0 -3.46.7 5.62 5.62 0 0 1 -2.29.17 4.67 4.67 0 0 1 -2.33-1.09 6.15 6.15 0 0 1 -2.15-5.38 9 9 0 0 1 2.73-5.35 13.48 13.48 0 0 1 4.25-2.73c2.75-1.07 4.58-1.38 4.54-1.51z" fill="#ff9a6c"/><path d="m307.78 438.13c-.2.08.2 1.23.94 2.44s1.33 2.18 1.51 2.1-.17-1.22-.9-2.46-1.33-2.14-1.55-2.08z" fill="#ff9a6c"/><path d="m290.53 439.21a3.9 3.9 0 0 0 .08 1.22 30.24 30.24 0 0 0 .61 3.27 53.36 53.36 0 0 0 3.67 10.3 54.71 54.71 0 0 0 5.66 9.39 32.25 32.25 0 0 0 2.12 2.56 4.48 4.48 0 0 0 .89.84c.09-.07-1-1.4-2.6-3.69a67.86 67.86 0 0 1 -5.42-9.41 65.93 65.93 0 0 1 -3.84-10.15c-.7-2.64-1.05-4.35-1.17-4.33z" fill="#ff9a6c"/><path d="m279.71 439.74a4.19 4.19 0 0 0 0 1.25c0 .81.13 2 .28 3.41a89 89 0 0 0 2 11.11 80.51 80.51 0 0 0 3.41 10.75c.53 1.34 1 2.41 1.36 3.13a3.88 3.88 0 0 0 .62 1.1 44.43 44.43 0 0 0 -1.51-4.41c-1-2.7-2.15-6.49-3.19-10.74s-1.71-8.17-2.15-11a41.74 41.74 0 0 0 -.82-4.6z" fill="#ff9a6c"/><path d="m271.18 443a10.29 10.29 0 0 0 -.24 2.85 61.19 61.19 0 0 0 .32 6.9c.28 2.69.67 5.1 1 6.84a9.94 9.94 0 0 0 .75 2.76c.2 0-.53-4.33-1.06-9.67s-.57-9.68-.77-9.68z" fill="#ff9a6c"/><path d="m310 454.81a9.59 9.59 0 0 0 -1.12-2l-2.88-4.81c-1.11-1.87-2.1-3.57-2.8-4.81a13.42 13.42 0 0 0 -1.16-2 5.44 5.44 0 0 0 .71 2.23 52.12 52.12 0 0 0 2.64 5c2.18 3.71 4.38 6.58 4.61 6.39z" fill="#ff9a6c"/><path d="m291.11 442.67a2.78 2.78 0 0 1 -.29-.82 13.43 13.43 0 0 1 -.45-2.35 5.77 5.77 0 0 1 .09-1.68 3.78 3.78 0 0 1 1-1.73 4.25 4.25 0 0 1 1.84-1.15 4.48 4.48 0 0 1 2.33 0 8.42 8.42 0 0 1 3.78 2.22 14.56 14.56 0 0 1 2.06 2.9c.49.88.84 1.61 1.07 2.12a2.83 2.83 0 0 1 .29.83c-.07 0-.63-1.07-1.68-2.76a15.26 15.26 0 0 0 -2.08-2.74 8.15 8.15 0 0 0 -3.56-2.07 3.83 3.83 0 0 0 -3.71 1 3.49 3.49 0 0 0 -.88 1.49 5.66 5.66 0 0 0 -.14 1.56c.09 1.95.43 3.16.33 3.18z" fill="#ff9a6c"/><path d="m290.21 439.53a9.68 9.68 0 0 0 -.93-2.25 5.52 5.52 0 0 0 -1.87-1.77 5.13 5.13 0 0 0 -3.05-.62 5 5 0 0 0 -2.86 1.21 5.45 5.45 0 0 0 -1.49 2.1 9.25 9.25 0 0 0 -.47 2.39s-.11-.23-.14-.67a5.4 5.4 0 0 1 .26-1.85 5.51 5.51 0 0 1 8-3 5.53 5.53 0 0 1 1.94 2 5.14 5.14 0 0 1 .62 1.77 1.35 1.35 0 0 1 -.01.69z" fill="#ff9a6c"/><path d="m279.62 440.15a4.92 4.92 0 0 0 -1-1.5 3.47 3.47 0 0 0 -1.72-.83 3.84 3.84 0 0 0 -2.29.36 5.86 5.86 0 0 0 -2.8 3.24c-.42 1.07-.53 1.8-.61 1.78a4.06 4.06 0 0 1 .26-1.9 5.77 5.77 0 0 1 2.92-3.59 4.17 4.17 0 0 1 2.61-.36 3.71 3.71 0 0 1 1.89 1 2.21 2.21 0 0 1 .74 1.8z" fill="#ff9a6c"/><path d="m264.29 372.77c-3.94 3.26-7.06 7.72-7.83 12.75s2.12 11.74 6.35 14.59c6.6-.67 12.34-8.11 14.52-14.36 1.74-5 1.37-10.8.8-16.29a3 3 0 0 0 -4.21-2.41 40.64 40.64 0 0 0 -9.63 5.72z" fill="#455a64"/><path d="m262.35 419a9.13 9.13 0 0 1 -.29-1.43c-.16-.92-.32-2.27-.45-4a61.09 61.09 0 0 1 3.65-25.83c.59-1.57 1.12-2.82 1.53-3.67a6.94 6.94 0 0 1 .68-1.29 9.24 9.24 0 0 1 -.49 1.37c-.35.87-.83 2.14-1.37 3.72a69.89 69.89 0 0 0 -3.05 12.66 69.09 69.09 0 0 0 -.58 13c.08 1.67.19 3 .29 3.95a6.88 6.88 0 0 1 .08 1.52z" fill="#263238"/><path d="m259 399a8.15 8.15 0 0 0 -4.32-4.13 13.16 13.16 0 0 0 -6-.9 34.25 34.25 0 0 0 -6 1.06 15.19 15.19 0 0 0 2.15 6.31 10.81 10.81 0 0 0 3.56 3 12.65 12.65 0 0 0 4.81 1.66 8.77 8.77 0 0 0 5.28-1.2 6 6 0 0 0 .52-5.8z" fill="#455a64"/><path d="m250.18 398.74a8.9 8.9 0 0 1 2.29 1 21.11 21.11 0 0 1 4.88 3.56 19.44 19.44 0 0 1 3.56 4.88 9.35 9.35 0 0 1 1 2.3 14.87 14.87 0 0 1 -1.29-2.12 22.84 22.84 0 0 0 -3.61-4.69 25.65 25.65 0 0 0 -4.69-3.61 18.74 18.74 0 0 1 -2.14-1.32z" fill="#263238"/><path d="m248.21 423.29a1.47 1.47 0 1 0 .25-.33" fill="#99584b"/><path d="m185.89 313.26a4.29 4.29 0 0 1 -.11.79c-.1.57-.24 1.32-.41 2.27-.39 2-.86 4.82-1.38 8.36a167.34 167.34 0 0 0 -1.66 27.84c.15 5.45.57 10.64 1.1 15.33s1.22 8.9 1.88 12.42c.29 1.76.65 3.34.92 4.74s.53 2.59.75 3.56l.48 2.26a4.57 4.57 0 0 1 .13.79 4.09 4.09 0 0 1 -.24-.77c-.14-.56-.33-1.3-.57-2.23s-.54-2.16-.84-3.55-.67-3-1-4.73c-.71-3.52-1.4-7.73-2-12.43s-1-9.91-1.15-15.38a157 157 0 0 1 1.81-27.91c.57-3.53 1.1-6.39 1.55-8.34.22-.94.38-1.69.51-2.25a4 4 0 0 1 .23-.77z" fill="#263238"/><path d="m337.18 309.4a4.68 4.68 0 0 1 .29.8l.74 2.31c.32 1 .69 2.24 1.07 3.68s.86 3.09 1.27 4.93l.69 2.88c.21 1 .43 2.05.65 3.13.48 2.17.84 4.51 1.28 7 .77 4.93 1.43 10.37 1.84 16.11s.45 11.23.36 16.21c-.09 2.49-.15 4.86-.33 7.07s-.32 4.27-.51 6.14-.42 3.56-.61 5.05-.39 2.76-.58 3.79-.31 1.8-.42 2.39a4.77 4.77 0 0 1 -.18.83 4.8 4.8 0 0 1 .08-.84c.08-.6.19-1.4.32-2.41s.33-2.31.49-3.8.39-3.17.53-5 .35-3.93.45-6.14.21-4.57.28-7.05c.07-5 0-10.44-.4-16.17s-1.05-11.15-1.79-16.06c-.43-2.45-.78-4.79-1.23-6.95-.22-1.08-.43-2.13-.62-3.14l-.66-2.88c-.39-1.84-.83-3.48-1.19-4.93s-.69-2.69-1-3.7l-.64-2.34a4.9 4.9 0 0 1 -.18-.91z" fill="#263238"/><path d="m301.11 131.42c-.71.24-1.81-1.15-3.44-3.21-.79-1-1.81-2.22-2.89-3.52s-2.41-2.65-3.81-4c-5.6-5.55-11.23-9.19-10.6-10.55.29-.63 2.16-.52 4.87.55a29.38 29.38 0 0 1 9.39 6.3 30.2 30.2 0 0 1 4 4.88 22.47 22.47 0 0 1 2.28 4.65c.97 2.77.85 4.68.2 4.9z" fill="#ff725e"/><path d="m266 419.89a21.74 21.74 0 0 0 -4.36-.72 22.47 22.47 0 0 0 -4.38.67 8.47 8.47 0 0 1 8.74.05z" fill="#99584b"/><path d="m361.55 296.94c0 .14-45.67.26-102 .26s-102-.12-102-.26 45.66-.26 102-.26 102 .11 102 .26z" fill="#fff"/><path d="m368.53 305.74h-.55-1.63l-6.26.05-23 .19-76 .89c-29.68.38-56.55.66-76 .74-9.72 0-17.59 0-23 0h-6.26-1.63-.56.56 1.63l6.26-.05 23-.19 76-.89c29.67-.38 56.54-.66 76-.74h23 6.26 1.63z" fill="#fff"/><path d="m288.74 246.11a695.62 695.62 0 0 0 3.45 83.16c.4 3.87.88 7.9 3 11.19 4.75 7.44 15.24 8 24.07 7.65 4.2-.15 12.87.51 15.22-3 1.55-2.3-.61-7.65 0-10.36 6.57-29.09 2.73-58.11-4.61-84.61" fill="#263238"/></svg>